<svg width="208" height="40" viewBox="0 0 208 40" fill="none" xmlns="http://www.w3.org/2000/svg">
<g clip-path="url(#clip0_8307_9976)">
<path d="M46.0326 27.2407C44.7526 27.2407 43.5606 27.0327 42.4566 26.6167C41.3686 26.1847 40.4166 25.5847 39.6006 24.8167C38.8006 24.0327 38.1766 23.1127 37.7286 22.0567C37.2806 21.0007 37.0566 19.8487 37.0566 18.6007C37.0566 17.3527 37.2806 16.2007 37.7286 15.1447C38.1766 14.0887 38.8086 13.1767 39.6246 12.4087C40.4406 11.6247 41.3926 11.0247 42.4806 10.6087C43.5686 10.1767 44.7606 9.96066 46.0566 9.96066C47.4326 9.96066 48.6886 10.2007 49.8246 10.6807C50.9606 11.1447 51.9206 11.8407 52.7046 12.7687L50.6886 14.6647C50.0806 14.0087 49.4006 13.5207 48.6486 13.2007C47.8966 12.8647 47.0806 12.6967 46.2006 12.6967C45.3206 12.6967 44.5126 12.8407 43.7766 13.1287C43.0566 13.4167 42.4246 13.8247 41.8806 14.3527C41.3526 14.8807 40.9366 15.5047 40.6326 16.2247C40.3446 16.9447 40.2006 17.7367 40.2006 18.6007C40.2006 19.4647 40.3446 20.2567 40.6326 20.9767C40.9366 21.6967 41.3526 22.3207 41.8806 22.8487C42.4246 23.3767 43.0566 23.7847 43.7766 24.0727C44.5126 24.3607 45.3206 24.5047 46.2006 24.5047C47.0806 24.5047 47.8966 24.3447 48.6486 24.0247C49.4006 23.6887 50.0806 23.1847 50.6886 22.5127L52.7046 24.4327C51.9206 25.3447 50.9606 26.0407 49.8246 26.5207C48.6886 27.0007 47.4246 27.2407 46.0326 27.2407ZM63.1849 27.0007V24.4087L63.0169 23.8567V19.3207C63.0169 18.4407 62.7529 17.7607 62.2249 17.2807C61.6969 16.7847 60.8969 16.5367 59.8249 16.5367C59.1049 16.5367 58.3929 16.6487 57.6889 16.8727C57.0009 17.0967 56.4169 17.4087 55.9369 17.8087L54.7609 15.6247C55.4489 15.0967 56.2649 14.7047 57.2089 14.4487C58.1689 14.1767 59.1609 14.0407 60.1849 14.0407C62.0409 14.0407 63.4729 14.4887 64.4809 15.3847C65.5049 16.2647 66.0169 17.6327 66.0169 19.4887V27.0007H63.1849ZM59.1529 27.1687C58.1929 27.1687 57.3529 27.0087 56.6329 26.6887C55.9129 26.3527 55.3529 25.8967 54.9529 25.3207C54.5689 24.7287 54.3769 24.0647 54.3769 23.3287C54.3769 22.6087 54.5449 21.9607 54.8809 21.3847C55.2329 20.8087 55.8009 20.3527 56.5849 20.0167C57.3689 19.6807 58.4089 19.5127 59.7049 19.5127H63.4249V21.5047H59.9209C58.8969 21.5047 58.2089 21.6727 57.8569 22.0087C57.5049 22.3287 57.3289 22.7287 57.3289 23.2087C57.3289 23.7527 57.5449 24.1847 57.9769 24.5047C58.4089 24.8247 59.0089 24.9847 59.7769 24.9847C60.5129 24.9847 61.1689 24.8167 61.7449 24.4807C62.3369 24.1447 62.7609 23.6487 63.0169 22.9927L63.5209 24.7927C63.2329 25.5447 62.7129 26.1287 61.9609 26.5447C61.2249 26.9607 60.2889 27.1687 59.1529 27.1687ZM86.043 14.0407C87.067 14.0407 87.971 14.2407 88.755 14.6407C89.555 15.0407 90.179 15.6567 90.627 16.4887C91.075 17.3047 91.299 18.3607 91.299 19.6567V27.0007H88.299V20.0407C88.299 18.9047 88.051 18.0567 87.555 17.4967C87.059 16.9367 86.347 16.6567 85.419 16.6567C84.763 16.6567 84.179 16.8007 83.667 17.0887C83.171 17.3767 82.779 17.8007 82.491 18.3607C82.219 18.9207 82.083 19.6327 82.083 20.4967V27.0007H79.083V20.0407C79.083 18.9047 78.835 18.0567 78.339 17.4967C77.843 16.9367 77.131 16.6567 76.203 16.6567C75.547 16.6567 74.963 16.8007 74.451 17.0887C73.955 17.3767 73.563 17.8007 73.275 18.3607C73.003 18.9207 72.867 19.6327 72.867 20.4967V27.0007H69.867V14.1847H72.723V17.5927L72.219 16.5847C72.651 15.7527 73.275 15.1207 74.091 14.6887C74.923 14.2567 75.867 14.0407 76.923 14.0407C78.123 14.0407 79.163 14.3367 80.043 14.9287C80.939 15.5207 81.531 16.4167 81.819 17.6167L80.643 17.2087C81.059 16.2487 81.747 15.4807 82.707 14.9047C83.667 14.3287 84.779 14.0407 86.043 14.0407ZM102.237 27.1687C101.197 27.1687 100.245 26.9287 99.3807 26.4487C98.5327 25.9687 97.8527 25.2487 97.3407 24.2887C96.8447 23.3127 96.5967 22.0807 96.5967 20.5927C96.5967 19.0887 96.8367 17.8567 97.3167 16.8967C97.8127 15.9367 98.4847 15.2247 99.3327 14.7607C100.181 14.2807 101.149 14.0407 102.237 14.0407C103.501 14.0407 104.613 14.3127 105.573 14.8567C106.549 15.4007 107.317 16.1607 107.877 17.1367C108.453 18.1127 108.741 19.2647 108.741 20.5927C108.741 21.9207 108.453 23.0807 107.877 24.0727C107.317 25.0487 106.549 25.8087 105.573 26.3527C104.613 26.8967 103.501 27.1687 102.237 27.1687ZM95.1327 31.6567V14.1847H97.9887V17.2087L97.8927 20.6167L98.1327 24.0247V31.6567H95.1327ZM101.901 24.6007C102.621 24.6007 103.261 24.4407 103.821 24.1207C104.397 23.8007 104.853 23.3367 105.189 22.7287C105.525 22.1207 105.693 21.4087 105.693 20.5927C105.693 19.7607 105.525 19.0487 105.189 18.4567C104.853 17.8487 104.397 17.3847 103.821 17.0647C103.261 16.7447 102.621 16.5847 101.901 16.5847C101.181 16.5847 100.533 16.7447 99.9567 17.0647C99.3807 17.3847 98.9247 17.8487 98.5887 18.4567C98.2527 19.0487 98.0847 19.7607 98.0847 20.5927C98.0847 21.4087 98.2527 22.1207 98.5887 22.7287C98.9247 23.3367 99.3807 23.8007 99.9567 24.1207C100.533 24.4407 101.181 24.6007 101.901 24.6007ZM119.318 27.0007V24.4087L119.15 23.8567V19.3207C119.15 18.4407 118.886 17.7607 118.358 17.2807C117.83 16.7847 117.03 16.5367 115.958 16.5367C115.238 16.5367 114.526 16.6487 113.822 16.8727C113.134 17.0967 112.55 17.4087 112.07 17.8087L110.894 15.6247C111.582 15.0967 112.398 14.7047 113.342 14.4487C114.302 14.1767 115.294 14.0407 116.318 14.0407C118.174 14.0407 119.606 14.4887 120.614 15.3847C121.638 16.2647 122.15 17.6327 122.15 19.4887V27.0007H119.318ZM115.286 27.1687C114.326 27.1687 113.486 27.0087 112.766 26.6887C112.046 26.3527 111.486 25.8967 111.086 25.3207C110.702 24.7287 110.51 24.0647 110.51 23.3287C110.51 22.6087 110.678 21.9607 111.014 21.3847C111.366 20.8087 111.934 20.3527 112.718 20.0167C113.502 19.6807 114.542 19.5127 115.838 19.5127H119.558V21.5047H116.054C115.03 21.5047 114.342 21.6727 113.99 22.0087C113.638 22.3287 113.462 22.7287 113.462 23.2087C113.462 23.7527 113.678 24.1847 114.11 24.5047C114.542 24.8247 115.142 24.9847 115.91 24.9847C116.646 24.9847 117.302 24.8167 117.878 24.4807C118.47 24.1447 118.894 23.6487 119.15 22.9927L119.654 24.7927C119.366 25.5447 118.846 26.1287 118.094 26.5447C117.358 26.9607 116.422 27.1687 115.286 27.1687ZM126 27.0007V14.1847H129V27.0007H126ZM127.512 12.0727C126.952 12.0727 126.488 11.8967 126.12 11.5447C125.768 11.1927 125.592 10.7687 125.592 10.2727C125.592 9.76066 125.768 9.33666 126.12 9.00066C126.488 8.64866 126.952 8.47266 127.512 8.47266C128.072 8.47266 128.528 8.64066 128.88 8.97666C129.248 9.29666 129.432 9.70466 129.432 10.2007C129.432 10.7287 129.256 11.1767 128.904 11.5447C128.552 11.8967 128.088 12.0727 127.512 12.0727ZM138.746 31.8247C137.562 31.8247 136.402 31.6647 135.266 31.3447C134.146 31.0407 133.226 30.5927 132.506 30.0007L133.85 27.7447C134.41 28.2087 135.114 28.5767 135.962 28.8487C136.826 29.1367 137.698 29.2807 138.578 29.2807C139.986 29.2807 141.018 28.9527 141.674 28.2967C142.33 27.6567 142.658 26.6887 142.658 25.3927V23.1127L142.898 20.2087L142.802 17.3047V14.1847H145.658V25.0567C145.658 27.3767 145.066 29.0807 143.882 30.1687C142.698 31.2727 140.986 31.8247 138.746 31.8247ZM138.362 26.4247C137.146 26.4247 136.042 26.1687 135.05 25.6567C134.074 25.1287 133.298 24.4007 132.722 23.4727C132.162 22.5447 131.882 21.4567 131.882 20.2087C131.882 18.9767 132.162 17.8967 132.722 16.9687C133.298 16.0407 134.074 15.3207 135.05 14.8087C136.042 14.2967 137.146 14.0407 138.362 14.0407C139.45 14.0407 140.426 14.2567 141.29 14.6887C142.154 15.1207 142.842 15.7927 143.354 16.7047C143.882 17.6167 144.146 18.7847 144.146 20.2087C144.146 21.6327 143.882 22.8087 143.354 23.7367C142.842 24.6487 142.154 25.3287 141.29 25.7767C140.426 26.2087 139.45 26.4247 138.362 26.4247ZM138.818 23.8807C139.57 23.8807 140.242 23.7287 140.834 23.4247C141.426 23.1047 141.882 22.6727 142.202 22.1287C142.538 21.5687 142.706 20.9287 142.706 20.2087C142.706 19.4887 142.538 18.8567 142.202 18.3127C141.882 17.7527 141.426 17.3287 140.834 17.0407C140.242 16.7367 139.57 16.5847 138.818 16.5847C138.066 16.5847 137.386 16.7367 136.778 17.0407C136.186 17.3287 135.722 17.7527 135.386 18.3127C135.066 18.8567 134.906 19.4887 134.906 20.2087C134.906 20.9287 135.066 21.5687 135.386 22.1287C135.722 22.6727 136.186 23.1047 136.778 23.4247C137.386 23.7287 138.066 23.8807 138.818 23.8807ZM156.874 14.0407C157.898 14.0407 158.81 14.2407 159.61 14.6407C160.426 15.0407 161.066 15.6567 161.53 16.4887C161.994 17.3047 162.226 18.3607 162.226 19.6567V27.0007H159.226V20.0407C159.226 18.9047 158.954 18.0567 158.41 17.4967C157.882 16.9367 157.138 16.6567 156.178 16.6567C155.474 16.6567 154.85 16.8007 154.306 17.0887C153.762 17.3767 153.338 17.8087 153.034 18.3847C152.746 18.9447 152.602 19.6567 152.602 20.5207V27.0007H149.602V14.1847H152.458V17.6407L151.954 16.5847C152.402 15.7687 153.05 15.1447 153.898 14.7127C154.762 14.2647 155.754 14.0407 156.874 14.0407Z" fill="#322E29"/>
<path d="M166.318 26.9992V10.1992H173.23C174.718 10.1992 175.99 10.4392 177.046 10.9192C178.118 11.3992 178.942 12.0872 179.518 12.9832C180.094 13.8792 180.382 14.9432 180.382 16.1752C180.382 17.4072 180.094 18.4712 179.518 19.3672C178.942 20.2632 178.118 20.9512 177.046 21.4312C175.99 21.9112 174.718 22.1512 173.23 22.1512H168.046L169.438 20.6872V26.9992H166.318ZM169.438 21.0232L168.046 19.5112H173.086C174.462 19.5112 175.494 19.2232 176.181 18.6472C176.886 18.0552 177.238 17.2312 177.238 16.1752C177.238 15.1032 176.886 14.2792 176.181 13.7032C175.494 13.1272 174.462 12.8392 173.086 12.8392H168.046L169.438 11.3032V21.0232ZM183.092 26.9992V14.1832H185.948V17.7112L185.612 16.6792C185.996 15.8152 186.596 15.1592 187.412 14.7112C188.244 14.2632 189.276 14.0392 190.508 14.0392V16.8952C190.38 16.8632 190.26 16.8472 190.148 16.8472C190.036 16.8312 189.924 16.8232 189.812 16.8232C188.676 16.8232 187.772 17.1592 187.1 17.8312C186.428 18.4872 186.092 19.4712 186.092 20.7832V26.9992H183.092ZM198.696 27.1672C197.384 27.1672 196.216 26.8872 195.192 26.3272C194.168 25.7512 193.36 24.9672 192.768 23.9752C192.176 22.9832 191.88 21.8552 191.88 20.5912C191.88 19.3112 192.176 18.1832 192.768 17.2072C193.36 16.2152 194.168 15.4392 195.192 14.8792C196.216 14.3192 197.384 14.0392 198.696 14.0392C200.024 14.0392 201.2 14.3192 202.224 14.8792C203.264 15.4392 204.072 16.2072 204.648 17.1832C205.24 18.1592 205.536 19.2952 205.536 20.5912C205.536 21.8552 205.24 22.9832 204.648 23.9752C204.072 24.9672 203.264 25.7512 202.224 26.3272C201.2 26.8872 200.024 27.1672 198.696 27.1672ZM198.696 24.5992C199.432 24.5992 200.088 24.4392 200.664 24.1192C201.24 23.7992 201.688 23.3352 202.008 22.7272C202.344 22.1192 202.512 21.4072 202.512 20.5912C202.512 19.7592 202.344 19.0472 202.008 18.4552C201.688 17.8472 201.24 17.3832 200.664 17.0632C200.088 16.7432 199.44 16.5832 198.72 16.5832C197.984 16.5832 197.328 16.7432 196.752 17.0632C196.192 17.3832 195.744 17.8472 195.408 18.4552C195.072 19.0472 194.904 19.7592 194.904 20.5912C194.904 21.4072 195.072 22.1192 195.408 22.7272C195.744 23.3352 196.192 23.7992 196.752 24.1192C197.328 24.4392 197.976 24.5992 198.696 24.5992Z" fill="#007BFD"/>
<path d="M40.9253 38.0426C40.5566 38.0426 40.216 37.9819 39.9033 37.8606C39.5906 37.7346 39.32 37.5596 39.0913 37.3356C38.8626 37.1116 38.683 36.8479 38.5523 36.5446C38.4263 36.2413 38.3633 35.9099 38.3633 35.5506C38.3633 35.1913 38.4263 34.8599 38.5523 34.5566C38.683 34.2533 38.8626 33.9896 39.0913 33.7656C39.3246 33.5416 39.5976 33.3689 39.9103 33.2476C40.223 33.1216 40.5636 33.0586 40.9323 33.0586C41.287 33.0586 41.6206 33.1193 41.9333 33.2406C42.246 33.3573 42.5096 33.5346 42.7243 33.7726L42.3953 34.1016C42.1946 33.8963 41.973 33.7493 41.7303 33.6606C41.4876 33.5673 41.2263 33.5206 40.9463 33.5206C40.6523 33.5206 40.3793 33.5719 40.1273 33.6746C39.8753 33.7726 39.656 33.9149 39.4693 34.1016C39.2826 34.2836 39.1356 34.4983 39.0283 34.7456C38.9256 34.9883 38.8743 35.2566 38.8743 35.5506C38.8743 35.8446 38.9256 36.1153 39.0283 36.3626C39.1356 36.6053 39.2826 36.8199 39.4693 37.0066C39.656 37.1886 39.8753 37.3309 40.1273 37.4336C40.3793 37.5316 40.6523 37.5806 40.9463 37.5806C41.2263 37.5806 41.4876 37.5339 41.7303 37.4406C41.973 37.3473 42.1946 37.1979 42.3953 36.9926L42.7243 37.3216C42.5096 37.5596 42.246 37.7393 41.9333 37.8606C41.6206 37.9819 41.2846 38.0426 40.9253 38.0426ZM45.9719 38.0006V37.1886L45.9509 37.0556V35.6976C45.9509 35.3849 45.8622 35.1446 45.6849 34.9766C45.5122 34.8086 45.2532 34.7246 44.9079 34.7246C44.6699 34.7246 44.4435 34.7643 44.2289 34.8436C44.0142 34.9229 43.8322 35.0279 43.6829 35.1586L43.4589 34.7876C43.6455 34.6289 43.8695 34.5076 44.1309 34.4236C44.3922 34.3349 44.6675 34.2906 44.9569 34.2906C45.4329 34.2906 45.7992 34.4096 46.0559 34.6476C46.3172 34.8809 46.4479 35.2379 46.4479 35.7186V38.0006H45.9719ZM44.7049 38.0356C44.4295 38.0356 44.1892 37.9913 43.9839 37.9026C43.7832 37.8093 43.6292 37.6833 43.5219 37.5246C43.4145 37.3613 43.3609 37.1746 43.3609 36.9646C43.3609 36.7733 43.4052 36.6006 43.4939 36.4466C43.5872 36.2879 43.7365 36.1619 43.9419 36.0686C44.1519 35.9706 44.4319 35.9216 44.7819 35.9216H46.0489V36.2926H44.7959C44.4412 36.2926 44.1939 36.3556 44.0539 36.4816C43.9185 36.6076 43.8509 36.7639 43.8509 36.9506C43.8509 37.1606 43.9325 37.3286 44.0959 37.4546C44.2592 37.5806 44.4879 37.6436 44.7819 37.6436C45.0619 37.6436 45.3022 37.5806 45.5029 37.4546C45.7082 37.3239 45.8575 37.1373 45.9509 36.8946L46.0629 37.2376C45.9695 37.4803 45.8062 37.6739 45.5729 37.8186C45.3442 37.9633 45.0549 38.0356 44.7049 38.0356ZM52.3898 34.2906C52.6884 34.2906 52.9474 34.3489 53.1668 34.4656C53.3908 34.5776 53.5634 34.7503 53.6848 34.9836C53.8108 35.2169 53.8738 35.5109 53.8738 35.8656V38.0006H53.3768V35.9146C53.3768 35.5273 53.2834 35.2356 53.0968 35.0396C52.9148 34.8389 52.6558 34.7386 52.3198 34.7386C52.0678 34.7386 51.8484 34.7923 51.6618 34.8996C51.4798 35.0023 51.3374 35.1539 51.2348 35.3546C51.1368 35.5506 51.0878 35.7886 51.0878 36.0686V38.0006H50.5908V35.9146C50.5908 35.5273 50.4974 35.2356 50.3108 35.0396C50.1241 34.8389 49.8628 34.7386 49.5268 34.7386C49.2794 34.7386 49.0624 34.7923 48.8758 34.8996C48.6891 35.0023 48.5444 35.1539 48.4418 35.3546C48.3438 35.5506 48.2948 35.7886 48.2948 36.0686V38.0006H47.7978V34.3256H48.2738V35.3196L48.1968 35.1446C48.3088 34.8786 48.4884 34.6709 48.7358 34.5216C48.9878 34.3676 49.2841 34.2906 49.6248 34.2906C49.9841 34.2906 50.2898 34.3816 50.5418 34.5636C50.7938 34.7409 50.9571 35.0093 51.0318 35.3686L50.8358 35.2916C50.9431 34.9929 51.1321 34.7526 51.4028 34.5706C51.6781 34.3839 52.0071 34.2906 52.3898 34.2906ZM57.1186 38.0356C56.8013 38.0356 56.5143 37.9633 56.2576 37.8186C56.0009 37.6693 55.7956 37.4569 55.6416 37.1816C55.4923 36.9016 55.4176 36.5609 55.4176 36.1596C55.4176 35.7583 55.4923 35.4199 55.6416 35.1446C55.7909 34.8646 55.9939 34.6523 56.2506 34.5076C56.5073 34.3629 56.7966 34.2906 57.1186 34.2906C57.4686 34.2906 57.7813 34.3699 58.0566 34.5286C58.3366 34.6826 58.5559 34.9019 58.7146 35.1866C58.8733 35.4666 58.9526 35.7909 58.9526 36.1596C58.9526 36.5329 58.8733 36.8596 58.7146 37.1396C58.5559 37.4196 58.3366 37.6389 58.0566 37.7976C57.7813 37.9563 57.4686 38.0356 57.1186 38.0356ZM55.2216 39.3586V34.3256H55.6976V35.4316L55.6486 36.1666L55.7186 36.9086V39.3586H55.2216ZM57.0836 37.5946C57.3449 37.5946 57.5783 37.5363 57.7836 37.4196C57.9889 37.2983 58.1523 37.1303 58.2736 36.9156C58.3949 36.6963 58.4556 36.4443 58.4556 36.1596C58.4556 35.8749 58.3949 35.6253 58.2736 35.4106C58.1523 35.1959 57.9889 35.0279 57.7836 34.9066C57.5783 34.7853 57.3449 34.7246 57.0836 34.7246C56.8223 34.7246 56.5866 34.7853 56.3766 34.9066C56.1713 35.0279 56.0079 35.1959 55.8866 35.4106C55.7699 35.6253 55.7116 35.8749 55.7116 36.1596C55.7116 36.4443 55.7699 36.6963 55.8866 36.9156C56.0079 37.1303 56.1713 37.2983 56.3766 37.4196C56.5866 37.5363 56.8223 37.5946 57.0836 37.5946ZM62.2482 38.0006V37.1886L62.2272 37.0556V35.6976C62.2272 35.3849 62.1386 35.1446 61.9612 34.9766C61.7886 34.8086 61.5296 34.7246 61.1842 34.7246C60.9462 34.7246 60.7199 34.7643 60.5052 34.8436C60.2906 34.9229 60.1086 35.0279 59.9592 35.1586L59.7352 34.7876C59.9219 34.6289 60.1459 34.5076 60.4072 34.4236C60.6686 34.3349 60.9439 34.2906 61.2332 34.2906C61.7092 34.2906 62.0756 34.4096 62.3322 34.6476C62.5936 34.8809 62.7242 35.2379 62.7242 35.7186V38.0006H62.2482ZM60.9812 38.0356C60.7059 38.0356 60.4656 37.9913 60.2602 37.9026C60.0596 37.8093 59.9056 37.6833 59.7982 37.5246C59.6909 37.3613 59.6372 37.1746 59.6372 36.9646C59.6372 36.7733 59.6816 36.6006 59.7702 36.4466C59.8636 36.2879 60.0129 36.1619 60.2182 36.0686C60.4282 35.9706 60.7082 35.9216 61.0582 35.9216H62.3252V36.2926H61.0722C60.7176 36.2926 60.4702 36.3556 60.3302 36.4816C60.1949 36.6076 60.1272 36.7639 60.1272 36.9506C60.1272 37.1606 60.2089 37.3286 60.3722 37.4546C60.5356 37.5806 60.7642 37.6436 61.0582 37.6436C61.3382 37.6436 61.5786 37.5806 61.7792 37.4546C61.9846 37.3239 62.1339 37.1373 62.2272 36.8946L62.3392 37.2376C62.2459 37.4803 62.0826 37.6739 61.8492 37.8186C61.6206 37.9633 61.3312 38.0356 60.9812 38.0356ZM64.0741 38.0006V34.3256H64.5711V38.0006H64.0741ZM64.3261 33.5136C64.2235 33.5136 64.1371 33.4786 64.0671 33.4086C63.9971 33.3386 63.9621 33.2546 63.9621 33.1566C63.9621 33.0586 63.9971 32.9769 64.0671 32.9116C64.1371 32.8416 64.2235 32.8066 64.3261 32.8066C64.4288 32.8066 64.5151 32.8393 64.5851 32.9046C64.6551 32.9699 64.6901 33.0516 64.6901 33.1496C64.6901 33.2523 64.6551 33.3386 64.5851 33.4086C64.5198 33.4786 64.4335 33.5136 64.3261 33.5136ZM67.522 39.3936C67.186 39.3936 66.864 39.3446 66.556 39.2466C66.248 39.1486 65.9984 39.0086 65.807 38.8266L66.059 38.4486C66.2317 38.6026 66.444 38.7239 66.696 38.8126C66.9527 38.9059 67.2234 38.9526 67.508 38.9526C67.9747 38.9526 68.3177 38.8429 68.537 38.6236C68.7564 38.4089 68.866 38.0729 68.866 37.6156V36.6986L68.936 36.0686L68.887 35.4386V34.3256H69.363V37.5526C69.363 38.1873 69.2067 38.6516 68.894 38.9456C68.586 39.2443 68.1287 39.3936 67.522 39.3936ZM67.431 37.8606C67.081 37.8606 66.766 37.7859 66.486 37.6366C66.206 37.4826 65.9844 37.2703 65.821 36.9996C65.6624 36.7289 65.583 36.4186 65.583 36.0686C65.583 35.7186 65.6624 35.4106 65.821 35.1446C65.9844 34.8739 66.206 34.6639 66.486 34.5146C66.766 34.3653 67.081 34.2906 67.431 34.2906C67.7577 34.2906 68.0517 34.3583 68.313 34.4936C68.5744 34.6289 68.782 34.8296 68.936 35.0956C69.09 35.3616 69.167 35.6859 69.167 36.0686C69.167 36.4513 69.09 36.7756 68.936 37.0416C68.782 37.3076 68.5744 37.5106 68.313 37.6506C68.0517 37.7906 67.7577 37.8606 67.431 37.8606ZM67.48 37.4196C67.7507 37.4196 67.991 37.3636 68.201 37.2516C68.411 37.1349 68.5767 36.9763 68.698 36.7756C68.8194 36.5703 68.88 36.3346 68.88 36.0686C68.88 35.8026 68.8194 35.5693 68.698 35.3686C68.5767 35.1679 68.411 35.0116 68.201 34.8996C67.991 34.7829 67.7507 34.7246 67.48 34.7246C67.214 34.7246 66.9737 34.7829 66.759 34.8996C66.549 35.0116 66.3834 35.1679 66.262 35.3686C66.1454 35.5693 66.087 35.8026 66.087 36.0686C66.087 36.3346 66.1454 36.5703 66.262 36.7756C66.3834 36.9763 66.549 37.1349 66.759 37.2516C66.9737 37.3636 67.214 37.4196 67.48 37.4196ZM72.622 34.2906C72.9207 34.2906 73.182 34.3489 73.406 34.4656C73.6347 34.5776 73.812 34.7503 73.938 34.9836C74.0687 35.2169 74.134 35.5109 74.134 35.8656V38.0006H73.637V35.9146C73.637 35.5273 73.539 35.2356 73.343 35.0396C73.1517 34.8389 72.881 34.7386 72.531 34.7386C72.2697 34.7386 72.041 34.7923 71.845 34.8996C71.6537 35.0023 71.5043 35.1539 71.397 35.3546C71.2943 35.5506 71.243 35.7886 71.243 36.0686V38.0006H70.746V34.3256H71.222V35.3336L71.145 35.1446C71.2617 34.8786 71.4483 34.6709 71.705 34.5216C71.9617 34.3676 72.2673 34.2906 72.622 34.2906ZM77.8755 35.2916H80.4655V35.7326H77.8755V35.2916ZM77.9315 37.5526H80.8785V38.0006H77.4135V33.1006H80.7735V33.5486H77.9315V37.5526ZM81.3286 38.0006L82.8826 35.9846L82.8756 36.2296L81.3986 34.3256H81.9586L83.1696 35.9006L82.9596 35.8936L84.1706 34.3256H84.7166L83.2256 36.2506L83.2326 35.9846L84.8006 38.0006H84.2336L82.9526 36.3206L83.1486 36.3486L81.8886 38.0006H81.3286ZM87.024 38.0356C86.66 38.0356 86.3333 37.9563 86.044 37.7976C85.7593 37.6343 85.5353 37.4126 85.372 37.1326C85.2086 36.8479 85.127 36.5236 85.127 36.1596C85.127 35.7909 85.2086 35.4666 85.372 35.1866C85.5353 34.9066 85.7593 34.6873 86.044 34.5286C86.3333 34.3699 86.66 34.2906 87.024 34.2906C87.3366 34.2906 87.619 34.3513 87.871 34.4726C88.123 34.5939 88.3213 34.7759 88.466 35.0186L88.095 35.2706C87.969 35.0839 87.8126 34.9463 87.626 34.8576C87.4393 34.7689 87.2363 34.7246 87.017 34.7246C86.7556 34.7246 86.52 34.7853 86.31 34.9066C86.1 35.0233 85.9343 35.1889 85.813 35.4036C85.6916 35.6183 85.631 35.8703 85.631 36.1596C85.631 36.4489 85.6916 36.7009 85.813 36.9156C85.9343 37.1303 86.1 37.2983 86.31 37.4196C86.52 37.5363 86.7556 37.5946 87.017 37.5946C87.2363 37.5946 87.4393 37.5503 87.626 37.4616C87.8126 37.3729 87.969 37.2376 88.095 37.0556L88.466 37.3076C88.3213 37.5456 88.123 37.7276 87.871 37.8536C87.619 37.9749 87.3366 38.0356 87.024 38.0356ZM90.9418 38.0356C90.5591 38.0356 90.2231 37.9563 89.9338 37.7976C89.6444 37.6343 89.4181 37.4126 89.2548 37.1326C89.0914 36.8479 89.0098 36.5236 89.0098 36.1596C89.0098 35.7956 89.0868 35.4736 89.2408 35.1936C89.3994 34.9136 89.6141 34.6943 89.8848 34.5356C90.1601 34.3723 90.4681 34.2906 90.8088 34.2906C91.1541 34.2906 91.4598 34.3699 91.7258 34.5286C91.9964 34.6826 92.2088 34.9019 92.3628 35.1866C92.5168 35.4666 92.5938 35.7909 92.5938 36.1596C92.5938 36.1829 92.5914 36.2086 92.5868 36.2366C92.5868 36.2599 92.5868 36.2856 92.5868 36.3136H89.3878V35.9426H92.3208L92.1248 36.0896C92.1248 35.8236 92.0664 35.5879 91.9498 35.3826C91.8378 35.1726 91.6838 35.0093 91.4878 34.8926C91.2918 34.7759 91.0654 34.7176 90.8088 34.7176C90.5568 34.7176 90.3304 34.7759 90.1298 34.8926C89.9291 35.0093 89.7728 35.1726 89.6608 35.3826C89.5488 35.5926 89.4928 35.8329 89.4928 36.1036V36.1806C89.4928 36.4606 89.5534 36.7079 89.6748 36.9226C89.8008 37.1326 89.9734 37.2983 90.1928 37.4196C90.4168 37.5363 90.6711 37.5946 90.9558 37.5946C91.1798 37.5946 91.3874 37.5549 91.5788 37.4756C91.7748 37.3963 91.9428 37.2749 92.0828 37.1116L92.3628 37.4336C92.1994 37.6296 91.9941 37.7789 91.7468 37.8816C91.5041 37.9843 91.2358 38.0356 90.9418 38.0356ZM93.6054 38.0006V32.8066H94.1024V38.0006H93.6054ZM95.4853 38.0006V32.8066H95.9823V38.0006H95.4853ZM98.9262 38.0356C98.5435 38.0356 98.2075 37.9563 97.9182 37.7976C97.6288 37.6343 97.4025 37.4126 97.2392 37.1326C97.0758 36.8479 96.9942 36.5236 96.9942 36.1596C96.9942 35.7956 97.0712 35.4736 97.2252 35.1936C97.3838 34.9136 97.5985 34.6943 97.8692 34.5356C98.1445 34.3723 98.4525 34.2906 98.7932 34.2906C99.1385 34.2906 99.4442 34.3699 99.7102 34.5286C99.9808 34.6826 100.193 34.9019 100.347 35.1866C100.501 35.4666 100.578 35.7909 100.578 36.1596C100.578 36.1829 100.576 36.2086 100.571 36.2366C100.571 36.2599 100.571 36.2856 100.571 36.3136H97.3722V35.9426H100.305L100.109 36.0896C100.109 35.8236 100.051 35.5879 99.9342 35.3826C99.8222 35.1726 99.6682 35.0093 99.4722 34.8926C99.2762 34.7759 99.0498 34.7176 98.7932 34.7176C98.5412 34.7176 98.3148 34.7759 98.1142 34.8926C97.9135 35.0093 97.7572 35.1726 97.6452 35.3826C97.5332 35.5926 97.4772 35.8329 97.4772 36.1036V36.1806C97.4772 36.4606 97.5378 36.7079 97.6592 36.9226C97.7852 37.1326 97.9578 37.2983 98.1772 37.4196C98.4012 37.5363 98.6555 37.5946 98.9402 37.5946C99.1642 37.5946 99.3718 37.5549 99.5632 37.4756C99.7592 37.3963 99.9272 37.2749 100.067 37.1116L100.347 37.4336C100.184 37.6296 99.9785 37.7789 99.7312 37.8816C99.4885 37.9843 99.2202 38.0356 98.9262 38.0356ZM103.465 34.2906C103.764 34.2906 104.025 34.3489 104.249 34.4656C104.478 34.5776 104.655 34.7503 104.781 34.9836C104.912 35.2169 104.977 35.5109 104.977 35.8656V38.0006H104.48V35.9146C104.48 35.5273 104.382 35.2356 104.186 35.0396C103.995 34.8389 103.724 34.7386 103.374 34.7386C103.113 34.7386 102.884 34.7923 102.688 34.8996C102.497 35.0023 102.348 35.1539 102.24 35.3546C102.138 35.5506 102.086 35.7886 102.086 36.0686V38.0006H101.59V34.3256H102.065V35.3336L101.989 35.1446C102.105 34.8786 102.292 34.6709 102.548 34.5216C102.805 34.3676 103.111 34.2906 103.465 34.2906ZM107.846 38.0356C107.482 38.0356 107.155 37.9563 106.866 37.7976C106.581 37.6343 106.357 37.4126 106.194 37.1326C106.031 36.8479 105.949 36.5236 105.949 36.1596C105.949 35.7909 106.031 35.4666 106.194 35.1866C106.357 34.9066 106.581 34.6873 106.866 34.5286C107.155 34.3699 107.482 34.2906 107.846 34.2906C108.159 34.2906 108.441 34.3513 108.693 34.4726C108.945 34.5939 109.143 34.7759 109.288 35.0186L108.917 35.2706C108.791 35.0839 108.635 34.9463 108.448 34.8576C108.261 34.7689 108.058 34.7246 107.839 34.7246C107.578 34.7246 107.342 34.7853 107.132 34.9066C106.922 35.0233 106.756 35.1889 106.635 35.4036C106.514 35.6183 106.453 35.8703 106.453 36.1596C106.453 36.4489 106.514 36.7009 106.635 36.9156C106.756 37.1303 106.922 37.2983 107.132 37.4196C107.342 37.5363 107.578 37.5946 107.839 37.5946C108.058 37.5946 108.261 37.5503 108.448 37.4616C108.635 37.3729 108.791 37.2376 108.917 37.0556L109.288 37.3076C109.143 37.5456 108.945 37.7276 108.693 37.8536C108.441 37.9749 108.159 38.0356 107.846 38.0356ZM111.764 38.0356C111.381 38.0356 111.045 37.9563 110.756 37.7976C110.466 37.6343 110.24 37.4126 110.077 37.1326C109.913 36.8479 109.832 36.5236 109.832 36.1596C109.832 35.7956 109.909 35.4736 110.063 35.1936C110.221 34.9136 110.436 34.6943 110.707 34.5356C110.982 34.3723 111.29 34.2906 111.631 34.2906C111.976 34.2906 112.282 34.3699 112.548 34.5286C112.818 34.6826 113.031 34.9019 113.185 35.1866C113.339 35.4666 113.416 35.7909 113.416 36.1596C113.416 36.1829 113.413 36.2086 113.409 36.2366C113.409 36.2599 113.409 36.2856 113.409 36.3136H110.21V35.9426H113.143L112.947 36.0896C112.947 35.8236 112.888 35.5879 112.772 35.3826C112.66 35.1726 112.506 35.0093 112.31 34.8926C112.114 34.7759 111.887 34.7176 111.631 34.7176C111.379 34.7176 111.152 34.7759 110.952 34.8926C110.751 35.0093 110.595 35.1726 110.483 35.3826C110.371 35.5926 110.315 35.8329 110.315 36.1036V36.1806C110.315 36.4606 110.375 36.7079 110.497 36.9226C110.623 37.1326 110.795 37.2983 111.015 37.4196C111.239 37.5363 111.493 37.5946 111.778 37.5946C112.002 37.5946 112.209 37.5549 112.401 37.4756C112.597 37.3963 112.765 37.2749 112.905 37.1116L113.185 37.4336C113.021 37.6296 112.816 37.7789 112.569 37.8816C112.326 37.9843 112.058 38.0356 111.764 38.0356ZM114.126 39.0226L114.434 37.7276L114.49 38.0286C114.383 38.0286 114.292 37.9936 114.217 37.9236C114.147 37.8536 114.112 37.7626 114.112 37.6506C114.112 37.5386 114.147 37.4476 114.217 37.3776C114.292 37.3076 114.381 37.2726 114.483 37.2726C114.591 37.2726 114.677 37.3099 114.742 37.3846C114.812 37.4593 114.847 37.5479 114.847 37.6506C114.847 37.6879 114.845 37.7253 114.84 37.7626C114.836 37.7999 114.826 37.8419 114.812 37.8886C114.798 37.9353 114.78 37.9913 114.756 38.0566L114.462 39.0226H114.126ZM119.99 38.0426C119.621 38.0426 119.278 37.9819 118.961 37.8606C118.648 37.7346 118.375 37.5596 118.142 37.3356C117.913 37.1069 117.733 36.8433 117.603 36.5446C117.477 36.2413 117.414 35.9099 117.414 35.5506C117.414 35.1913 117.477 34.8623 117.603 34.5636C117.733 34.2603 117.913 33.9966 118.142 33.7726C118.375 33.5439 118.648 33.3689 118.961 33.2476C119.273 33.1216 119.616 33.0586 119.99 33.0586C120.358 33.0586 120.699 33.1216 121.012 33.2476C121.324 33.3689 121.595 33.5416 121.824 33.7656C122.057 33.9896 122.237 34.2533 122.363 34.5566C122.493 34.8599 122.559 35.1913 122.559 35.5506C122.559 35.9099 122.493 36.2413 122.363 36.5446C122.237 36.8479 122.057 37.1116 121.824 37.3356C121.595 37.5596 121.324 37.7346 121.012 37.8606C120.699 37.9819 120.358 38.0426 119.99 38.0426ZM121.593 38.9736C121.443 38.9736 121.299 38.9549 121.159 38.9176C121.019 38.8803 120.876 38.8196 120.732 38.7356C120.592 38.6563 120.447 38.5513 120.298 38.4206C120.148 38.2899 119.985 38.1313 119.808 37.9446L120.375 37.8046C120.519 37.9773 120.659 38.1196 120.795 38.2316C120.935 38.3436 121.07 38.4253 121.201 38.4766C121.336 38.5326 121.469 38.5606 121.6 38.5606C121.964 38.5606 122.274 38.4113 122.531 38.1126L122.783 38.4136C122.475 38.7869 122.078 38.9736 121.593 38.9736ZM119.99 37.5806C120.284 37.5806 120.554 37.5316 120.802 37.4336C121.054 37.3309 121.271 37.1863 121.453 36.9996C121.639 36.8129 121.784 36.5983 121.887 36.3556C121.989 36.1083 122.041 35.8399 122.041 35.5506C122.041 35.2566 121.989 34.9883 121.887 34.7456C121.784 34.4983 121.639 34.2836 121.453 34.1016C121.271 33.9149 121.054 33.7726 120.802 33.6746C120.554 33.5719 120.284 33.5206 119.99 33.5206C119.696 33.5206 119.423 33.5719 119.171 33.6746C118.919 33.7726 118.699 33.9149 118.513 34.1016C118.331 34.2836 118.186 34.4983 118.079 34.7456C117.976 34.9883 117.925 35.2566 117.925 35.5506C117.925 35.8399 117.976 36.1083 118.079 36.3556C118.186 36.5983 118.331 36.8129 118.513 36.9996C118.699 37.1863 118.919 37.3309 119.171 37.4336C119.423 37.5316 119.696 37.5806 119.99 37.5806ZM125.134 38.0356C124.821 38.0356 124.548 37.9773 124.315 37.8606C124.082 37.7439 123.9 37.5689 123.769 37.3356C123.643 37.1023 123.58 36.8106 123.58 36.4606V34.3256H124.077V36.4046C124.077 36.7966 124.173 37.0929 124.364 37.2936C124.56 37.4896 124.833 37.5876 125.183 37.5876C125.44 37.5876 125.661 37.5363 125.848 37.4336C126.039 37.3263 126.184 37.1723 126.282 36.9716C126.385 36.7709 126.436 36.5306 126.436 36.2506V34.3256H126.933V38.0006H126.457V36.9926L126.534 37.1746C126.417 37.4453 126.235 37.6576 125.988 37.8116C125.745 37.9609 125.461 38.0356 125.134 38.0356ZM130.621 38.0006V37.1886L130.6 37.0556V35.6976C130.6 35.3849 130.511 35.1446 130.334 34.9766C130.161 34.8086 129.902 34.7246 129.557 34.7246C129.319 34.7246 129.093 34.7643 128.878 34.8436C128.663 34.9229 128.481 35.0279 128.332 35.1586L128.108 34.7876C128.295 34.6289 128.519 34.5076 128.78 34.4236C129.041 34.3349 129.317 34.2906 129.606 34.2906C130.082 34.2906 130.448 34.4096 130.705 34.6476C130.966 34.8809 131.097 35.2379 131.097 35.7186V38.0006H130.621ZM129.354 38.0356C129.079 38.0356 128.838 37.9913 128.633 37.9026C128.432 37.8093 128.278 37.6833 128.171 37.5246C128.064 37.3613 128.01 37.1746 128.01 36.9646C128.01 36.7733 128.054 36.6006 128.143 36.4466C128.236 36.2879 128.386 36.1619 128.591 36.0686C128.801 35.9706 129.081 35.9216 129.431 35.9216H130.698V36.2926H129.445C129.09 36.2926 128.843 36.3556 128.703 36.4816C128.568 36.6076 128.5 36.7639 128.5 36.9506C128.5 37.1606 128.582 37.3286 128.745 37.4546C128.908 37.5806 129.137 37.6436 129.431 37.6436C129.711 37.6436 129.951 37.5806 130.152 37.4546C130.357 37.3239 130.507 37.1373 130.6 36.8946L130.712 37.2376C130.619 37.4803 130.455 37.6739 130.222 37.8186C129.993 37.9633 129.704 38.0356 129.354 38.0356ZM132.447 38.0006V32.8066H132.944V38.0006H132.447ZM134.327 38.0006V34.3256H134.824V38.0006H134.327ZM134.579 33.5136C134.476 33.5136 134.39 33.4786 134.32 33.4086C134.25 33.3386 134.215 33.2546 134.215 33.1566C134.215 33.0586 134.25 32.9769 134.32 32.9116C134.39 32.8416 134.476 32.8066 134.579 32.8066C134.681 32.8066 134.768 32.8393 134.838 32.9046C134.908 32.9699 134.943 33.0516 134.943 33.1496C134.943 33.2523 134.908 33.3386 134.838 33.4086C134.772 33.4786 134.686 33.5136 134.579 33.5136ZM137.369 38.0356C137.023 38.0356 136.757 37.9423 136.571 37.7556C136.384 37.5689 136.291 37.3053 136.291 36.9646V33.5136H136.788V36.9366C136.788 37.1513 136.841 37.3169 136.949 37.4336C137.061 37.5503 137.219 37.6086 137.425 37.6086C137.644 37.6086 137.826 37.5456 137.971 37.4196L138.146 37.7766C138.048 37.8653 137.929 37.9306 137.789 37.9726C137.653 38.0146 137.513 38.0356 137.369 38.0356ZM135.633 34.7386V34.3256H137.908V34.7386H135.633ZM139.01 39.3936C138.837 39.3936 138.672 39.3656 138.513 39.3096C138.359 39.2536 138.226 39.1696 138.114 39.0576L138.345 38.6866C138.438 38.7753 138.539 38.8429 138.646 38.8896C138.758 38.9409 138.882 38.9666 139.017 38.9666C139.18 38.9666 139.32 38.9199 139.437 38.8266C139.558 38.7379 139.673 38.5793 139.78 38.3506L140.018 37.8116L140.074 37.7346L141.586 34.3256H142.076L140.235 38.4416C140.132 38.6796 140.018 38.8686 139.892 39.0086C139.771 39.1486 139.638 39.2466 139.493 39.3026C139.348 39.3633 139.187 39.3936 139.01 39.3936ZM139.99 38.1056L138.296 34.3256H138.814L140.312 37.6996L139.99 38.1056ZM143.929 38.0006L146.169 33.1006H146.68L148.92 38.0006H148.374L146.316 33.4016H146.526L144.468 38.0006H143.929ZM144.811 36.6916L144.965 36.2716H147.814L147.968 36.6916H144.811ZM150.578 38.0356C150.275 38.0356 149.988 37.9936 149.717 37.9096C149.447 37.8209 149.234 37.7113 149.08 37.5806L149.304 37.1886C149.454 37.3006 149.645 37.3986 149.878 37.4826C150.112 37.5619 150.357 37.6016 150.613 37.6016C150.963 37.6016 151.215 37.5479 151.369 37.4406C151.523 37.3286 151.6 37.1816 151.6 36.9996C151.6 36.8643 151.556 36.7593 151.467 36.6846C151.383 36.6053 151.271 36.5469 151.131 36.5096C150.991 36.4676 150.835 36.4326 150.662 36.4046C150.49 36.3766 150.317 36.3439 150.144 36.3066C149.976 36.2693 149.822 36.2156 149.682 36.1456C149.542 36.0709 149.428 35.9706 149.339 35.8446C149.255 35.7186 149.213 35.5506 149.213 35.3406C149.213 35.1399 149.269 34.9603 149.381 34.8016C149.493 34.6429 149.657 34.5193 149.871 34.4306C150.091 34.3373 150.357 34.2906 150.669 34.2906C150.907 34.2906 151.145 34.3233 151.383 34.3886C151.621 34.4493 151.817 34.5309 151.971 34.6336L151.754 35.0326C151.591 34.9206 151.416 34.8413 151.229 34.7946C151.043 34.7433 150.856 34.7176 150.669 34.7176C150.338 34.7176 150.093 34.7759 149.934 34.8926C149.78 35.0046 149.703 35.1493 149.703 35.3266C149.703 35.4666 149.745 35.5763 149.829 35.6556C149.918 35.7349 150.032 35.7979 150.172 35.8446C150.317 35.8866 150.473 35.9216 150.641 35.9496C150.814 35.9776 150.984 36.0126 151.152 36.0546C151.325 36.0919 151.481 36.1456 151.621 36.2156C151.766 36.2809 151.88 36.3766 151.964 36.5026C152.053 36.6239 152.097 36.7849 152.097 36.9856C152.097 37.2003 152.037 37.3869 151.915 37.5456C151.799 37.6996 151.626 37.8209 151.397 37.9096C151.173 37.9936 150.9 38.0356 150.578 38.0356ZM153.996 38.0356C153.693 38.0356 153.406 37.9936 153.135 37.9096C152.865 37.8209 152.652 37.7113 152.498 37.5806L152.722 37.1886C152.872 37.3006 153.063 37.3986 153.296 37.4826C153.53 37.5619 153.775 37.6016 154.031 37.6016C154.381 37.6016 154.633 37.5479 154.787 37.4406C154.941 37.3286 155.018 37.1816 155.018 36.9996C155.018 36.8643 154.974 36.7593 154.885 36.6846C154.801 36.6053 154.689 36.5469 154.549 36.5096C154.409 36.4676 154.253 36.4326 154.08 36.4046C153.908 36.3766 153.735 36.3439 153.562 36.3066C153.394 36.2693 153.24 36.2156 153.1 36.1456C152.96 36.0709 152.846 35.9706 152.757 35.8446C152.673 35.7186 152.631 35.5506 152.631 35.3406C152.631 35.1399 152.687 34.9603 152.799 34.8016C152.911 34.6429 153.075 34.5193 153.289 34.4306C153.509 34.3373 153.775 34.2906 154.087 34.2906C154.325 34.2906 154.563 34.3233 154.801 34.3886C155.039 34.4493 155.235 34.5309 155.389 34.6336L155.172 35.0326C155.009 34.9206 154.834 34.8413 154.647 34.7946C154.461 34.7433 154.274 34.7176 154.087 34.7176C153.756 34.7176 153.511 34.7759 153.352 34.8926C153.198 35.0046 153.121 35.1493 153.121 35.3266C153.121 35.4666 153.163 35.5763 153.247 35.6556C153.336 35.7349 153.45 35.7979 153.59 35.8446C153.735 35.8866 153.891 35.9216 154.059 35.9496C154.232 35.9776 154.402 36.0126 154.57 36.0546C154.743 36.0919 154.899 36.1456 155.039 36.2156C155.184 36.2809 155.298 36.3766 155.382 36.5026C155.471 36.6239 155.515 36.7849 155.515 36.9856C155.515 37.2003 155.455 37.3869 155.333 37.5456C155.217 37.6996 155.044 37.8209 154.815 37.9096C154.591 37.9936 154.318 38.0356 153.996 38.0356ZM157.946 38.0356C157.634 38.0356 157.361 37.9773 157.127 37.8606C156.894 37.7439 156.712 37.5689 156.581 37.3356C156.455 37.1023 156.392 36.8106 156.392 36.4606V34.3256H156.889V36.4046C156.889 36.7966 156.985 37.0929 157.176 37.2936C157.372 37.4896 157.645 37.5876 157.995 37.5876C158.252 37.5876 158.474 37.5363 158.66 37.4336C158.852 37.3263 158.996 37.1723 159.094 36.9716C159.197 36.7709 159.248 36.5306 159.248 36.2506V34.3256H159.745V38.0006H159.269V36.9926L159.346 37.1746C159.23 37.4453 159.048 37.6576 158.8 37.8116C158.558 37.9609 158.273 38.0356 157.946 38.0356ZM161.13 38.0006V34.3256H161.606V35.3266L161.557 35.1516C161.66 34.8716 161.833 34.6593 162.075 34.5146C162.318 34.3653 162.619 34.2906 162.978 34.2906V34.7736C162.96 34.7736 162.941 34.7736 162.922 34.7736C162.904 34.7689 162.885 34.7666 162.866 34.7666C162.479 34.7666 162.176 34.8856 161.956 35.1236C161.737 35.3569 161.627 35.6906 161.627 36.1246V38.0006H161.13ZM165.412 38.0356C165.03 38.0356 164.694 37.9563 164.404 37.7976C164.115 37.6343 163.889 37.4126 163.725 37.1326C163.562 36.8479 163.48 36.5236 163.48 36.1596C163.48 35.7956 163.557 35.4736 163.711 35.1936C163.87 34.9136 164.085 34.6943 164.355 34.5356C164.631 34.3723 164.939 34.2906 165.279 34.2906C165.625 34.2906 165.93 34.3699 166.196 34.5286C166.467 34.6826 166.679 34.9019 166.833 35.1866C166.987 35.4666 167.064 35.7909 167.064 36.1596C167.064 36.1829 167.062 36.2086 167.057 36.2366C167.057 36.2599 167.057 36.2856 167.057 36.3136H163.858V35.9426H166.791L166.595 36.0896C166.595 35.8236 166.537 35.5879 166.42 35.3826C166.308 35.1726 166.154 35.0093 165.958 34.8926C165.762 34.7759 165.536 34.7176 165.279 34.7176C165.027 34.7176 164.801 34.7759 164.6 34.8926C164.4 35.0093 164.243 35.1726 164.131 35.3826C164.019 35.5926 163.963 35.8329 163.963 36.1036V36.1806C163.963 36.4606 164.024 36.7079 164.145 36.9226C164.271 37.1326 164.444 37.2983 164.663 37.4196C164.887 37.5363 165.142 37.5946 165.426 37.5946C165.65 37.5946 165.858 37.5549 166.049 37.4756C166.245 37.3963 166.413 37.2749 166.553 37.1116L166.833 37.4336C166.67 37.6296 166.465 37.7789 166.217 37.8816C165.975 37.9843 165.706 38.0356 165.412 38.0356ZM169.539 38.0356C169.189 38.0356 168.874 37.9563 168.594 37.7976C168.318 37.6389 168.101 37.4196 167.943 37.1396C167.784 36.8549 167.705 36.5283 167.705 36.1596C167.705 35.7863 167.784 35.4596 167.943 35.1796C168.101 34.8996 168.318 34.6826 168.594 34.5286C168.874 34.3699 169.189 34.2906 169.539 34.2906C169.861 34.2906 170.148 34.3629 170.4 34.5076C170.656 34.6523 170.859 34.8646 171.009 35.1446C171.163 35.4199 171.24 35.7583 171.24 36.1596C171.24 36.5563 171.165 36.8946 171.016 37.1746C170.866 37.4546 170.663 37.6693 170.407 37.8186C170.155 37.9633 169.865 38.0356 169.539 38.0356ZM169.574 37.5946C169.835 37.5946 170.068 37.5363 170.274 37.4196C170.484 37.2983 170.647 37.1303 170.764 36.9156C170.885 36.6963 170.946 36.4443 170.946 36.1596C170.946 35.8703 170.885 35.6183 170.764 35.4036C170.647 35.1889 170.484 35.0233 170.274 34.9066C170.068 34.7853 169.835 34.7246 169.574 34.7246C169.317 34.7246 169.086 34.7853 168.881 34.9066C168.675 35.0233 168.512 35.1889 168.391 35.4036C168.269 35.6183 168.209 35.8703 168.209 36.1596C168.209 36.4443 168.269 36.6963 168.391 36.9156C168.512 37.1303 168.675 37.2983 168.881 37.4196C169.086 37.5363 169.317 37.5946 169.574 37.5946ZM170.96 38.0006V36.8946L171.009 36.1526L170.939 35.4106V32.8066H171.436V38.0006H170.96Z" fill="#5F5F5F"/>
<path d="M9.97895 27.6818V23.262C9.97895 23.262 6.81783 22.5625 5.66585 21.0521C4.77394 19.8827 4.389 18.9321 4.50199 17.4611C4.66394 15.3527 5.66585 13.5 7.5 13C9.15263 12.5495 11.5 13 11.5 13L15 9.5C15 9.5 12.5 8 9.97895 8C7.78819 8 5.73341 8.34554 3.54362 10.279C1.68394 11.921 0.43346 13.7451 0.12052 16.2181C-0.290224 19.4639 0.272928 22.4914 2.99583 24.9885C5.15613 26.9696 9.97895 27.6818 9.97895 27.6818Z" fill="#322E29"/>
<path d="M11.7946 17.2928C11.5888 20.0283 11.7946 32 11.7946 32L16.4503 27.2372C16.4503 27.2372 16.3127 18.743 16.6554 17.2928C16.998 15.8425 17.888 14.8334 19.7361 14.047C21.5842 13.2605 23.5323 13.4921 24.2546 13.7684C24.977 14.0447 26.2239 14.5829 27.13 15.8425C28.0362 17.1021 28.1161 18.4453 27.8831 19.9837C27.5971 21.872 26.8849 22.9749 25.2816 23.9915C23.7342 24.9725 21.9995 24.5 21.4995 24.5C21.0285 24.5 17.9995 23.9915 17.9995 23.9915V28.5C17.9995 28.5 21.7748 29.2901 24.2546 28.8946C25.9762 28.62 26.5975 28.3121 28.0889 27.4022C29.8204 26.3457 30.5052 25.348 31.5116 23.5771C32.6486 21.5763 32.6073 19.1148 32.6073 18.1483C32.6073 15.4547 30.6901 12.8094 29.2524 11.5606C26.7793 9.4125 24.7737 8.94342 21.5162 9.14354C19.1446 9.28923 17.6617 9.66098 15.6969 11.0084C13.1983 12.7218 12.0003 14.5572 11.7946 17.2928Z" fill="#007BFD"/>
</g>
<defs>
<clipPath id="clip0_8307_9976">
<rect width="208" height="40" fill="white"/>
</clipPath>
</defs>
</svg>
