<svg width="33" height="24" viewBox="0 0 33 24" fill="none" xmlns="http://www.w3.org/2000/svg">
<path d="M9.97895 19.6818V15.262C9.97895 15.262 6.81783 14.5625 5.66585 13.0521C4.77394 11.8827 4.389 10.9321 4.50199 9.46106C4.66394 7.35275 6.20663 5.71318 7.5 5C8.79337 4.28682 11.5 5 11.5 5L15 1.5C15 1.5 12.5 0 9.97895 0C7.78819 0 5.73341 0.34554 3.54362 2.279C1.68394 3.92098 0.43346 5.74512 0.12052 8.21806C-0.290224 11.4639 0.272928 14.4914 2.99583 16.9885C5.15613 18.9696 9.97895 19.6818 9.97895 19.6818Z" fill="#007BFD"/>
<path d="M11.7951 9.29276C11.5893 12.0283 11.7951 24 11.7951 24L16.4508 19.2372C16.4508 19.2372 16.3132 10.743 16.6559 9.29276C16.9985 7.84252 17.8885 6.83345 19.7366 6.04699C21.5847 5.26053 23.5328 5.49212 24.2551 5.7684C24.9775 6.04469 26.2244 6.58292 27.1305 7.84252C28.0367 9.10212 28.1166 10.4453 27.8836 11.9837C27.5976 13.872 26.8854 14.9749 25.2821 15.9915C23.7347 16.9725 22 16.5 21.5 16.5C21.029 16.5 18 15.9915 18 15.9915V20.5C18 20.5 21.7753 21.2901 24.2551 20.8946C25.9767 20.62 26.598 20.3121 28.0894 19.4022C29.8209 18.3457 30.5057 17.348 31.5121 15.5771C32.6491 13.5763 32.6078 11.1148 32.6078 10.1483C32.6078 7.4547 30.6906 4.80941 29.2529 3.5606C26.7798 1.4125 24.7742 0.94342 21.5167 1.14354C19.1451 1.28923 17.6622 1.66098 15.6974 3.0084C13.1988 4.72185 12.0008 6.55721 11.7951 9.29276Z" fill="#007BFD"/>
</svg>
