<svg width="208" height="40" viewBox="0 0 208 40" fill="none" xmlns="http://www.w3.org/2000/svg">
<path d="M46.032 27.24C44.752 27.24 43.56 27.032 42.456 26.616C41.368 26.184 40.416 25.584 39.6 24.816C38.8 24.032 38.176 23.112 37.728 22.056C37.28 21 37.056 19.848 37.056 18.6C37.056 17.352 37.28 16.2 37.728 15.144C38.176 14.088 38.808 13.176 39.624 12.408C40.44 11.624 41.392 11.024 42.48 10.608C43.568 10.176 44.76 9.96 46.056 9.96C47.432 9.96 48.688 10.2 49.824 10.68C50.96 11.144 51.92 11.84 52.704 12.768L50.688 14.664C50.08 14.008 49.4 13.52 48.648 13.2C47.896 12.864 47.08 12.696 46.2 12.696C45.32 12.696 44.512 12.84 43.776 13.128C43.056 13.416 42.424 13.824 41.88 14.352C41.352 14.88 40.936 15.504 40.632 16.224C40.344 16.944 40.2 17.736 40.2 18.6C40.2 19.464 40.344 20.256 40.632 20.976C40.936 21.696 41.352 22.32 41.88 22.848C42.424 23.376 43.056 23.784 43.776 24.072C44.512 24.36 45.32 24.504 46.2 24.504C47.08 24.504 47.896 24.344 48.648 24.024C49.4 23.688 50.08 23.184 50.688 22.512L52.704 24.432C51.92 25.344 50.96 26.04 49.824 26.52C48.688 27 47.424 27.24 46.032 27.24ZM63.1843 27V24.408L63.0163 23.856V19.32C63.0163 18.44 62.7523 17.76 62.2243 17.28C61.6963 16.784 60.8963 16.536 59.8243 16.536C59.1043 16.536 58.3923 16.648 57.6883 16.872C57.0003 17.096 56.4163 17.408 55.9363 17.808L54.7603 15.624C55.4483 15.096 56.2643 14.704 57.2083 14.448C58.1683 14.176 59.1603 14.04 60.1843 14.04C62.0403 14.04 63.4723 14.488 64.4803 15.384C65.5043 16.264 66.0163 17.632 66.0163 19.488V27H63.1843ZM59.1523 27.168C58.1923 27.168 57.3523 27.008 56.6323 26.688C55.9123 26.352 55.3523 25.896 54.9523 25.32C54.5683 24.728 54.3763 24.064 54.3763 23.328C54.3763 22.608 54.5443 21.96 54.8803 21.384C55.2323 20.808 55.8003 20.352 56.5843 20.016C57.3683 19.68 58.4083 19.512 59.7043 19.512H63.4243V21.504H59.9203C58.8963 21.504 58.2083 21.672 57.8563 22.008C57.5043 22.328 57.3283 22.728 57.3283 23.208C57.3283 23.752 57.5443 24.184 57.9763 24.504C58.4083 24.824 59.0083 24.984 59.7763 24.984C60.5123 24.984 61.1683 24.816 61.7443 24.48C62.3363 24.144 62.7603 23.648 63.0163 22.992L63.5203 24.792C63.2323 25.544 62.7123 26.128 61.9603 26.544C61.2243 26.96 60.2883 27.168 59.1523 27.168ZM86.0424 14.04C87.0664 14.04 87.9704 14.24 88.7544 14.64C89.5544 15.04 90.1784 15.656 90.6264 16.488C91.0744 17.304 91.2984 18.36 91.2984 19.656V27H88.2984V20.04C88.2984 18.904 88.0504 18.056 87.5544 17.496C87.0584 16.936 86.3464 16.656 85.4184 16.656C84.7624 16.656 84.1784 16.8 83.6664 17.088C83.1704 17.376 82.7784 17.8 82.4904 18.36C82.2184 18.92 82.0824 19.632 82.0824 20.496V27H79.0824V20.04C79.0824 18.904 78.8344 18.056 78.3384 17.496C77.8424 16.936 77.1304 16.656 76.2024 16.656C75.5464 16.656 74.9624 16.8 74.4504 17.088C73.9544 17.376 73.5624 17.8 73.2744 18.36C73.0024 18.92 72.8664 19.632 72.8664 20.496V27H69.8664V14.184H72.7224V17.592L72.2184 16.584C72.6504 15.752 73.2744 15.12 74.0904 14.688C74.9224 14.256 75.8664 14.04 76.9224 14.04C78.1224 14.04 79.1624 14.336 80.0424 14.928C80.9384 15.52 81.5304 16.416 81.8184 17.616L80.6424 17.208C81.0584 16.248 81.7464 15.48 82.7064 14.904C83.6664 14.328 84.7784 14.04 86.0424 14.04ZM102.236 27.168C101.196 27.168 100.244 26.928 99.3801 26.448C98.5321 25.968 97.8521 25.248 97.3401 24.288C96.8441 23.312 96.5961 22.08 96.5961 20.592C96.5961 19.088 96.8361 17.856 97.3161 16.896C97.8121 15.936 98.4841 15.224 99.3321 14.76C100.18 14.28 101.148 14.04 102.236 14.04C103.5 14.04 104.612 14.312 105.572 14.856C106.548 15.4 107.316 16.16 107.876 17.136C108.452 18.112 108.74 19.264 108.74 20.592C108.74 21.92 108.452 23.08 107.876 24.072C107.316 25.048 106.548 25.808 105.572 26.352C104.612 26.896 103.5 27.168 102.236 27.168ZM95.1321 31.656V14.184H97.9881V17.208L97.8921 20.616L98.1321 24.024V31.656H95.1321ZM101.9 24.6C102.62 24.6 103.26 24.44 103.82 24.12C104.396 23.8 104.852 23.336 105.188 22.728C105.524 22.12 105.692 21.408 105.692 20.592C105.692 19.76 105.524 19.048 105.188 18.456C104.852 17.848 104.396 17.384 103.82 17.064C103.26 16.744 102.62 16.584 101.9 16.584C101.18 16.584 100.532 16.744 99.9561 17.064C99.3801 17.384 98.9241 17.848 98.5881 18.456C98.2521 19.048 98.0841 19.76 98.0841 20.592C98.0841 21.408 98.2521 22.12 98.5881 22.728C98.9241 23.336 99.3801 23.8 99.9561 24.12C100.532 24.44 101.18 24.6 101.9 24.6ZM119.317 27V24.408L119.149 23.856V19.32C119.149 18.44 118.885 17.76 118.357 17.28C117.829 16.784 117.029 16.536 115.957 16.536C115.237 16.536 114.525 16.648 113.821 16.872C113.133 17.096 112.549 17.408 112.069 17.808L110.893 15.624C111.581 15.096 112.397 14.704 113.341 14.448C114.301 14.176 115.293 14.04 116.317 14.04C118.173 14.04 119.605 14.488 120.613 15.384C121.637 16.264 122.149 17.632 122.149 19.488V27H119.317ZM115.285 27.168C114.325 27.168 113.485 27.008 112.765 26.688C112.045 26.352 111.485 25.896 111.085 25.32C110.701 24.728 110.509 24.064 110.509 23.328C110.509 22.608 110.677 21.96 111.013 21.384C111.365 20.808 111.933 20.352 112.717 20.016C113.501 19.68 114.541 19.512 115.837 19.512H119.557V21.504H116.053C115.029 21.504 114.341 21.672 113.989 22.008C113.637 22.328 113.461 22.728 113.461 23.208C113.461 23.752 113.677 24.184 114.109 24.504C114.541 24.824 115.141 24.984 115.909 24.984C116.645 24.984 117.301 24.816 117.877 24.48C118.469 24.144 118.893 23.648 119.149 22.992L119.653 24.792C119.365 25.544 118.845 26.128 118.093 26.544C117.357 26.96 116.421 27.168 115.285 27.168ZM125.999 27V14.184H128.999V27H125.999ZM127.511 12.072C126.951 12.072 126.487 11.896 126.119 11.544C125.767 11.192 125.591 10.768 125.591 10.272C125.591 9.76 125.767 9.336 126.119 9C126.487 8.648 126.951 8.472 127.511 8.472C128.071 8.472 128.527 8.64 128.879 8.976C129.247 9.296 129.431 9.704 129.431 10.2C129.431 10.728 129.255 11.176 128.903 11.544C128.551 11.896 128.087 12.072 127.511 12.072ZM138.745 31.824C137.561 31.824 136.401 31.664 135.265 31.344C134.145 31.04 133.225 30.592 132.505 30L133.849 27.744C134.409 28.208 135.113 28.576 135.961 28.848C136.825 29.136 137.697 29.28 138.577 29.28C139.985 29.28 141.017 28.952 141.673 28.296C142.329 27.656 142.657 26.688 142.657 25.392V23.112L142.897 20.208L142.801 17.304V14.184H145.657V25.056C145.657 27.376 145.065 29.08 143.881 30.168C142.697 31.272 140.985 31.824 138.745 31.824ZM138.361 26.424C137.145 26.424 136.041 26.168 135.049 25.656C134.073 25.128 133.297 24.4 132.721 23.472C132.161 22.544 131.881 21.456 131.881 20.208C131.881 18.976 132.161 17.896 132.721 16.968C133.297 16.04 134.073 15.32 135.049 14.808C136.041 14.296 137.145 14.04 138.361 14.04C139.449 14.04 140.425 14.256 141.289 14.688C142.153 15.12 142.841 15.792 143.353 16.704C143.881 17.616 144.145 18.784 144.145 20.208C144.145 21.632 143.881 22.808 143.353 23.736C142.841 24.648 142.153 25.328 141.289 25.776C140.425 26.208 139.449 26.424 138.361 26.424ZM138.817 23.88C139.569 23.88 140.241 23.728 140.833 23.424C141.425 23.104 141.881 22.672 142.201 22.128C142.537 21.568 142.705 20.928 142.705 20.208C142.705 19.488 142.537 18.856 142.201 18.312C141.881 17.752 141.425 17.328 140.833 17.04C140.241 16.736 139.569 16.584 138.817 16.584C138.065 16.584 137.385 16.736 136.777 17.04C136.185 17.328 135.721 17.752 135.385 18.312C135.065 18.856 134.905 19.488 134.905 20.208C134.905 20.928 135.065 21.568 135.385 22.128C135.721 22.672 136.185 23.104 136.777 23.424C137.385 23.728 138.065 23.88 138.817 23.88ZM156.873 14.04C157.897 14.04 158.809 14.24 159.609 14.64C160.425 15.04 161.065 15.656 161.529 16.488C161.993 17.304 162.225 18.36 162.225 19.656V27H159.225V20.04C159.225 18.904 158.953 18.056 158.409 17.496C157.881 16.936 157.137 16.656 156.177 16.656C155.473 16.656 154.849 16.8 154.305 17.088C153.761 17.376 153.337 17.808 153.033 18.384C152.745 18.944 152.601 19.656 152.601 20.52V27H149.601V14.184H152.457V17.64L151.953 16.584C152.401 15.768 153.049 15.144 153.897 14.712C154.761 14.264 155.753 14.04 156.873 14.04Z" fill="#322E29"/>
<path d="M166.319 27V10.2H173.231C174.719 10.2 175.991 10.44 177.047 10.92C178.119 11.4 178.943 12.088 179.519 12.984C180.095 13.88 180.383 14.944 180.383 16.176C180.383 17.408 180.095 18.472 179.519 19.368C178.943 20.264 178.119 20.952 177.047 21.432C175.991 21.912 174.719 22.152 173.231 22.152H168.047L169.439 20.688V27H166.319ZM169.439 21.024L168.047 19.512H173.087C174.463 19.512 175.495 19.224 176.182 18.648C176.887 18.056 177.239 17.232 177.239 16.176C177.239 15.104 176.887 14.28 176.182 13.704C175.495 13.128 174.463 12.84 173.087 12.84H168.047L169.439 11.304V21.024ZM183.093 27V14.184H185.949V17.712L185.613 16.68C185.997 15.816 186.597 15.16 187.413 14.712C188.245 14.264 189.277 14.04 190.509 14.04V16.896C190.381 16.864 190.261 16.848 190.149 16.848C190.037 16.832 189.925 16.824 189.813 16.824C188.677 16.824 187.773 17.16 187.101 17.832C186.429 18.488 186.093 19.472 186.093 20.784V27H183.093ZM198.697 27.168C197.385 27.168 196.217 26.888 195.193 26.328C194.169 25.752 193.361 24.968 192.769 23.976C192.177 22.984 191.881 21.856 191.881 20.592C191.881 19.312 192.177 18.184 192.769 17.208C193.361 16.216 194.169 15.44 195.193 14.88C196.217 14.32 197.385 14.04 198.697 14.04C200.025 14.04 201.201 14.32 202.225 14.88C203.265 15.44 204.073 16.208 204.649 17.184C205.241 18.16 205.537 19.296 205.537 20.592C205.537 21.856 205.241 22.984 204.649 23.976C204.073 24.968 203.265 25.752 202.225 26.328C201.201 26.888 200.025 27.168 198.697 27.168ZM198.697 24.6C199.433 24.6 200.089 24.44 200.665 24.12C201.241 23.8 201.689 23.336 202.009 22.728C202.345 22.12 202.513 21.408 202.513 20.592C202.513 19.76 202.345 19.048 202.009 18.456C201.689 17.848 201.241 17.384 200.665 17.064C200.089 16.744 199.441 16.584 198.721 16.584C197.985 16.584 197.329 16.744 196.753 17.064C196.193 17.384 195.745 17.848 195.409 18.456C195.073 19.048 194.905 19.76 194.905 20.592C194.905 21.408 195.073 22.12 195.409 22.728C195.745 23.336 196.193 23.8 196.753 24.12C197.329 24.44 197.977 24.6 198.697 24.6Z" fill="#007BFD"/>
<path d="M38.926 38.042C38.5573 38.042 38.2167 37.9813 37.904 37.86C37.5913 37.734 37.3207 37.559 37.092 37.335C36.8633 37.111 36.6837 36.8473 36.553 36.544C36.427 36.2407 36.364 35.9093 36.364 35.55C36.364 35.1907 36.427 34.8593 36.553 34.556C36.6837 34.2527 36.8633 33.989 37.092 33.765C37.3253 33.541 37.5983 33.3683 37.911 33.247C38.2237 33.121 38.5643 33.058 38.933 33.058C39.2877 33.058 39.6213 33.1187 39.934 33.24C40.2467 33.3567 40.5103 33.534 40.725 33.772L40.396 34.101C40.1953 33.8957 39.9737 33.7487 39.731 33.66C39.4883 33.5667 39.227 33.52 38.947 33.52C38.653 33.52 38.38 33.5713 38.128 33.674C37.876 33.772 37.6567 33.9143 37.47 34.101C37.2833 34.283 37.1363 34.4977 37.029 34.745C36.9263 34.9877 36.875 35.256 36.875 35.55C36.875 35.844 36.9263 36.1147 37.029 36.362C37.1363 36.6047 37.2833 36.8193 37.47 37.006C37.6567 37.188 37.876 37.3303 38.128 37.433C38.38 37.531 38.653 37.58 38.947 37.58C39.227 37.58 39.4883 37.5333 39.731 37.44C39.9737 37.3467 40.1953 37.1973 40.396 36.992L40.725 37.321C40.5103 37.559 40.2467 37.7387 39.934 37.86C39.6213 37.9813 39.2853 38.042 38.926 38.042ZM43.9726 38V37.188L43.9516 37.055V35.697C43.9516 35.3843 43.8629 35.144 43.6856 34.976C43.5129 34.808 43.2539 34.724 42.9086 34.724C42.6706 34.724 42.4442 34.7637 42.2296 34.843C42.0149 34.9223 41.8329 35.0273 41.6836 35.158L41.4596 34.787C41.6462 34.6283 41.8702 34.507 42.1316 34.423C42.3929 34.3343 42.6682 34.29 42.9576 34.29C43.4336 34.29 43.7999 34.409 44.0566 34.647C44.3179 34.8803 44.4486 35.2373 44.4486 35.718V38H43.9726ZM42.7056 38.035C42.4302 38.035 42.1899 37.9907 41.9846 37.902C41.7839 37.8087 41.6299 37.6827 41.5226 37.524C41.4152 37.3607 41.3616 37.174 41.3616 36.964C41.3616 36.7727 41.4059 36.6 41.4946 36.446C41.5879 36.2873 41.7372 36.1613 41.9426 36.068C42.1526 35.97 42.4326 35.921 42.7826 35.921H44.0496V36.292H42.7966C42.4419 36.292 42.1946 36.355 42.0546 36.481C41.9192 36.607 41.8516 36.7633 41.8516 36.95C41.8516 37.16 41.9332 37.328 42.0966 37.454C42.2599 37.58 42.4886 37.643 42.7826 37.643C43.0626 37.643 43.3029 37.58 43.5036 37.454C43.7089 37.3233 43.8582 37.1367 43.9516 36.894L44.0636 37.237C43.9702 37.4797 43.8069 37.6733 43.5736 37.818C43.3449 37.9627 43.0556 38.035 42.7056 38.035ZM50.3905 34.29C50.6891 34.29 50.9481 34.3483 51.1675 34.465C51.3915 34.577 51.5641 34.7497 51.6855 34.983C51.8115 35.2163 51.8745 35.5103 51.8745 35.865V38H51.3775V35.914C51.3775 35.5267 51.2841 35.235 51.0975 35.039C50.9155 34.8383 50.6565 34.738 50.3205 34.738C50.0685 34.738 49.8491 34.7917 49.6625 34.899C49.4805 35.0017 49.3381 35.1533 49.2355 35.354C49.1375 35.55 49.0885 35.788 49.0885 36.068V38H48.5915V35.914C48.5915 35.5267 48.4981 35.235 48.3115 35.039C48.1248 34.8383 47.8635 34.738 47.5275 34.738C47.2801 34.738 47.0631 34.7917 46.8765 34.899C46.6898 35.0017 46.5451 35.1533 46.4425 35.354C46.3445 35.55 46.2955 35.788 46.2955 36.068V38H45.7985V34.325H46.2745V35.319L46.1975 35.144C46.3095 34.878 46.4891 34.6703 46.7365 34.521C46.9885 34.367 47.2848 34.29 47.6255 34.29C47.9848 34.29 48.2905 34.381 48.5425 34.563C48.7945 34.7403 48.9578 35.0087 49.0325 35.368L48.8365 35.291C48.9438 34.9923 49.1328 34.752 49.4035 34.57C49.6788 34.3833 50.0078 34.29 50.3905 34.29ZM55.1193 38.035C54.802 38.035 54.515 37.9627 54.2583 37.818C54.0016 37.6687 53.7963 37.4563 53.6423 37.181C53.493 36.901 53.4183 36.5603 53.4183 36.159C53.4183 35.7577 53.493 35.4193 53.6423 35.144C53.7916 34.864 53.9946 34.6517 54.2513 34.507C54.508 34.3623 54.7973 34.29 55.1193 34.29C55.4693 34.29 55.782 34.3693 56.0573 34.528C56.3373 34.682 56.5566 34.9013 56.7153 35.186C56.874 35.466 56.9533 35.7903 56.9533 36.159C56.9533 36.5323 56.874 36.859 56.7153 37.139C56.5566 37.419 56.3373 37.6383 56.0573 37.797C55.782 37.9557 55.4693 38.035 55.1193 38.035ZM53.2223 39.358V34.325H53.6983V35.431L53.6493 36.166L53.7193 36.908V39.358H53.2223ZM55.0843 37.594C55.3456 37.594 55.579 37.5357 55.7843 37.419C55.9896 37.2977 56.153 37.1297 56.2743 36.915C56.3956 36.6957 56.4563 36.4437 56.4563 36.159C56.4563 35.8743 56.3956 35.6247 56.2743 35.41C56.153 35.1953 55.9896 35.0273 55.7843 34.906C55.579 34.7847 55.3456 34.724 55.0843 34.724C54.823 34.724 54.5873 34.7847 54.3773 34.906C54.172 35.0273 54.0086 35.1953 53.8873 35.41C53.7706 35.6247 53.7123 35.8743 53.7123 36.159C53.7123 36.4437 53.7706 36.6957 53.8873 36.915C54.0086 37.1297 54.172 37.2977 54.3773 37.419C54.5873 37.5357 54.823 37.594 55.0843 37.594ZM60.2489 38V37.188L60.2279 37.055V35.697C60.2279 35.3843 60.1393 35.144 59.9619 34.976C59.7893 34.808 59.5303 34.724 59.1849 34.724C58.9469 34.724 58.7206 34.7637 58.5059 34.843C58.2913 34.9223 58.1093 35.0273 57.9599 35.158L57.7359 34.787C57.9226 34.6283 58.1466 34.507 58.4079 34.423C58.6693 34.3343 58.9446 34.29 59.2339 34.29C59.7099 34.29 60.0763 34.409 60.3329 34.647C60.5943 34.8803 60.7249 35.2373 60.7249 35.718V38H60.2489ZM58.9819 38.035C58.7066 38.035 58.4663 37.9907 58.2609 37.902C58.0603 37.8087 57.9063 37.6827 57.7989 37.524C57.6916 37.3607 57.6379 37.174 57.6379 36.964C57.6379 36.7727 57.6823 36.6 57.7709 36.446C57.8643 36.2873 58.0136 36.1613 58.2189 36.068C58.4289 35.97 58.7089 35.921 59.0589 35.921H60.3259V36.292H59.0729C58.7183 36.292 58.4709 36.355 58.3309 36.481C58.1956 36.607 58.1279 36.7633 58.1279 36.95C58.1279 37.16 58.2096 37.328 58.3729 37.454C58.5363 37.58 58.7649 37.643 59.0589 37.643C59.3389 37.643 59.5793 37.58 59.7799 37.454C59.9853 37.3233 60.1346 37.1367 60.2279 36.894L60.3399 37.237C60.2466 37.4797 60.0833 37.6733 59.8499 37.818C59.6213 37.9627 59.3319 38.035 58.9819 38.035ZM62.0748 38V34.325H62.5718V38H62.0748ZM62.3268 33.513C62.2242 33.513 62.1378 33.478 62.0678 33.408C61.9978 33.338 61.9628 33.254 61.9628 33.156C61.9628 33.058 61.9978 32.9763 62.0678 32.911C62.1378 32.841 62.2242 32.806 62.3268 32.806C62.4295 32.806 62.5158 32.8387 62.5858 32.904C62.6558 32.9693 62.6908 33.051 62.6908 33.149C62.6908 33.2517 62.6558 33.338 62.5858 33.408C62.5205 33.478 62.4342 33.513 62.3268 33.513ZM65.5227 39.393C65.1867 39.393 64.8647 39.344 64.5567 39.246C64.2487 39.148 63.9991 39.008 63.8077 38.826L64.0597 38.448C64.2324 38.602 64.4447 38.7233 64.6967 38.812C64.9534 38.9053 65.2241 38.952 65.5087 38.952C65.9754 38.952 66.3184 38.8423 66.5377 38.623C66.7571 38.4083 66.8667 38.0723 66.8667 37.615V36.698L66.9367 36.068L66.8877 35.438V34.325H67.3637V37.552C67.3637 38.1867 67.2074 38.651 66.8947 38.945C66.5867 39.2437 66.1294 39.393 65.5227 39.393ZM65.4317 37.86C65.0817 37.86 64.7667 37.7853 64.4867 37.636C64.2067 37.482 63.9851 37.2697 63.8217 36.999C63.6631 36.7283 63.5837 36.418 63.5837 36.068C63.5837 35.718 63.6631 35.41 63.8217 35.144C63.9851 34.8733 64.2067 34.6633 64.4867 34.514C64.7667 34.3647 65.0817 34.29 65.4317 34.29C65.7584 34.29 66.0524 34.3577 66.3137 34.493C66.5751 34.6283 66.7827 34.829 66.9367 35.095C67.0907 35.361 67.1677 35.6853 67.1677 36.068C67.1677 36.4507 67.0907 36.775 66.9367 37.041C66.7827 37.307 66.5751 37.51 66.3137 37.65C66.0524 37.79 65.7584 37.86 65.4317 37.86ZM65.4807 37.419C65.7514 37.419 65.9917 37.363 66.2017 37.251C66.4117 37.1343 66.5774 36.9757 66.6987 36.775C66.8201 36.5697 66.8807 36.334 66.8807 36.068C66.8807 35.802 66.8201 35.5687 66.6987 35.368C66.5774 35.1673 66.4117 35.011 66.2017 34.899C65.9917 34.7823 65.7514 34.724 65.4807 34.724C65.2147 34.724 64.9744 34.7823 64.7597 34.899C64.5497 35.011 64.3841 35.1673 64.2627 35.368C64.1461 35.5687 64.0877 35.802 64.0877 36.068C64.0877 36.334 64.1461 36.5697 64.2627 36.775C64.3841 36.9757 64.5497 37.1343 64.7597 37.251C64.9744 37.363 65.2147 37.419 65.4807 37.419ZM70.6227 34.29C70.9214 34.29 71.1827 34.3483 71.4067 34.465C71.6354 34.577 71.8127 34.7497 71.9387 34.983C72.0694 35.2163 72.1347 35.5103 72.1347 35.865V38H71.6377V35.914C71.6377 35.5267 71.5397 35.235 71.3437 35.039C71.1524 34.8383 70.8817 34.738 70.5317 34.738C70.2704 34.738 70.0417 34.7917 69.8457 34.899C69.6544 35.0017 69.505 35.1533 69.3977 35.354C69.295 35.55 69.2437 35.788 69.2437 36.068V38H68.7467V34.325H69.2227V35.333L69.1457 35.144C69.2624 34.878 69.449 34.6703 69.7057 34.521C69.9624 34.367 70.268 34.29 70.6227 34.29ZM75.8762 35.291H78.4662V35.732H75.8762V35.291ZM75.9322 37.552H78.8792V38H75.4142V33.1H78.7742V33.548H75.9322V37.552ZM79.3293 38L80.8833 35.984L80.8763 36.229L79.3993 34.325H79.9593L81.1703 35.9L80.9603 35.893L82.1713 34.325H82.7173L81.2263 36.25L81.2333 35.984L82.8013 38H82.2343L80.9533 36.32L81.1493 36.348L79.8893 38H79.3293ZM85.0247 38.035C84.6607 38.035 84.334 37.9557 84.0447 37.797C83.76 37.6337 83.536 37.412 83.3727 37.132C83.2093 36.8473 83.1277 36.523 83.1277 36.159C83.1277 35.7903 83.2093 35.466 83.3727 35.186C83.536 34.906 83.76 34.6867 84.0447 34.528C84.334 34.3693 84.6607 34.29 85.0247 34.29C85.3373 34.29 85.6197 34.3507 85.8717 34.472C86.1237 34.5933 86.322 34.7753 86.4667 35.018L86.0957 35.27C85.9697 35.0833 85.8133 34.9457 85.6267 34.857C85.44 34.7683 85.237 34.724 85.0177 34.724C84.7563 34.724 84.5207 34.7847 84.3107 34.906C84.1007 35.0227 83.935 35.1883 83.8137 35.403C83.6923 35.6177 83.6317 35.8697 83.6317 36.159C83.6317 36.4483 83.6923 36.7003 83.8137 36.915C83.935 37.1297 84.1007 37.2977 84.3107 37.419C84.5207 37.5357 84.7563 37.594 85.0177 37.594C85.237 37.594 85.44 37.5497 85.6267 37.461C85.8133 37.3723 85.9697 37.237 86.0957 37.055L86.4667 37.307C86.322 37.545 86.1237 37.727 85.8717 37.853C85.6197 37.9743 85.3373 38.035 85.0247 38.035ZM88.9425 38.035C88.5598 38.035 88.2238 37.9557 87.9345 37.797C87.6451 37.6337 87.4188 37.412 87.2555 37.132C87.0921 36.8473 87.0105 36.523 87.0105 36.159C87.0105 35.795 87.0875 35.473 87.2415 35.193C87.4001 34.913 87.6148 34.6937 87.8855 34.535C88.1608 34.3717 88.4688 34.29 88.8095 34.29C89.1548 34.29 89.4605 34.3693 89.7265 34.528C89.9971 34.682 90.2095 34.9013 90.3635 35.186C90.5175 35.466 90.5945 35.7903 90.5945 36.159C90.5945 36.1823 90.5921 36.208 90.5875 36.236C90.5875 36.2593 90.5875 36.285 90.5875 36.313H87.3885V35.942H90.3215L90.1255 36.089C90.1255 35.823 90.0671 35.5873 89.9505 35.382C89.8385 35.172 89.6845 35.0087 89.4885 34.892C89.2925 34.7753 89.0661 34.717 88.8095 34.717C88.5575 34.717 88.3311 34.7753 88.1305 34.892C87.9298 35.0087 87.7735 35.172 87.6615 35.382C87.5495 35.592 87.4935 35.8323 87.4935 36.103V36.18C87.4935 36.46 87.5541 36.7073 87.6755 36.922C87.8015 37.132 87.9741 37.2977 88.1935 37.419C88.4175 37.5357 88.6718 37.594 88.9565 37.594C89.1805 37.594 89.3881 37.5543 89.5795 37.475C89.7755 37.3957 89.9435 37.2743 90.0835 37.111L90.3635 37.433C90.2001 37.629 89.9948 37.7783 89.7475 37.881C89.5048 37.9837 89.2365 38.035 88.9425 38.035ZM91.6061 38V32.806H92.1031V38H91.6061ZM93.486 38V32.806H93.983V38H93.486ZM96.9269 38.035C96.5442 38.035 96.2082 37.9557 95.9189 37.797C95.6295 37.6337 95.4032 37.412 95.2399 37.132C95.0765 36.8473 94.9949 36.523 94.9949 36.159C94.9949 35.795 95.0719 35.473 95.2259 35.193C95.3845 34.913 95.5992 34.6937 95.8699 34.535C96.1452 34.3717 96.4532 34.29 96.7939 34.29C97.1392 34.29 97.4449 34.3693 97.7109 34.528C97.9815 34.682 98.1939 34.9013 98.3479 35.186C98.5019 35.466 98.5789 35.7903 98.5789 36.159C98.5789 36.1823 98.5765 36.208 98.5719 36.236C98.5719 36.2593 98.5719 36.285 98.5719 36.313H95.3729V35.942H98.3059L98.1099 36.089C98.1099 35.823 98.0515 35.5873 97.9349 35.382C97.8229 35.172 97.6689 35.0087 97.4729 34.892C97.2769 34.7753 97.0505 34.717 96.7939 34.717C96.5419 34.717 96.3155 34.7753 96.1149 34.892C95.9142 35.0087 95.7579 35.172 95.6459 35.382C95.5339 35.592 95.4779 35.8323 95.4779 36.103V36.18C95.4779 36.46 95.5385 36.7073 95.6599 36.922C95.7859 37.132 95.9585 37.2977 96.1779 37.419C96.4019 37.5357 96.6562 37.594 96.9409 37.594C97.1649 37.594 97.3725 37.5543 97.5639 37.475C97.7599 37.3957 97.9279 37.2743 98.0679 37.111L98.3479 37.433C98.1845 37.629 97.9792 37.7783 97.7319 37.881C97.4892 37.9837 97.2209 38.035 96.9269 38.035ZM101.466 34.29C101.765 34.29 102.026 34.3483 102.25 34.465C102.479 34.577 102.656 34.7497 102.782 34.983C102.913 35.2163 102.978 35.5103 102.978 35.865V38H102.481V35.914C102.481 35.5267 102.383 35.235 102.187 35.039C101.996 34.8383 101.725 34.738 101.375 34.738C101.114 34.738 100.885 34.7917 100.689 34.899C100.498 35.0017 100.349 35.1533 100.241 35.354C100.139 35.55 100.087 35.788 100.087 36.068V38H99.5905V34.325H100.066V35.333L99.9895 35.144C100.106 34.878 100.293 34.6703 100.549 34.521C100.806 34.367 101.112 34.29 101.466 34.29ZM105.847 38.035C105.483 38.035 105.156 37.9557 104.867 37.797C104.582 37.6337 104.358 37.412 104.195 37.132C104.032 36.8473 103.95 36.523 103.95 36.159C103.95 35.7903 104.032 35.466 104.195 35.186C104.358 34.906 104.582 34.6867 104.867 34.528C105.156 34.3693 105.483 34.29 105.847 34.29C106.16 34.29 106.442 34.3507 106.694 34.472C106.946 34.5933 107.144 34.7753 107.289 35.018L106.918 35.27C106.792 35.0833 106.636 34.9457 106.449 34.857C106.262 34.7683 106.059 34.724 105.84 34.724C105.579 34.724 105.343 34.7847 105.133 34.906C104.923 35.0227 104.757 35.1883 104.636 35.403C104.515 35.6177 104.454 35.8697 104.454 36.159C104.454 36.4483 104.515 36.7003 104.636 36.915C104.757 37.1297 104.923 37.2977 105.133 37.419C105.343 37.5357 105.579 37.594 105.84 37.594C106.059 37.594 106.262 37.5497 106.449 37.461C106.636 37.3723 106.792 37.237 106.918 37.055L107.289 37.307C107.144 37.545 106.946 37.727 106.694 37.853C106.442 37.9743 106.16 38.035 105.847 38.035ZM109.765 38.035C109.382 38.035 109.046 37.9557 108.757 37.797C108.467 37.6337 108.241 37.412 108.078 37.132C107.914 36.8473 107.833 36.523 107.833 36.159C107.833 35.795 107.91 35.473 108.064 35.193C108.222 34.913 108.437 34.6937 108.708 34.535C108.983 34.3717 109.291 34.29 109.632 34.29C109.977 34.29 110.283 34.3693 110.549 34.528C110.819 34.682 111.032 34.9013 111.186 35.186C111.34 35.466 111.417 35.7903 111.417 36.159C111.417 36.1823 111.414 36.208 111.41 36.236C111.41 36.2593 111.41 36.285 111.41 36.313H108.211V35.942H111.144L110.948 36.089C110.948 35.823 110.889 35.5873 110.773 35.382C110.661 35.172 110.507 35.0087 110.311 34.892C110.115 34.7753 109.888 34.717 109.632 34.717C109.38 34.717 109.153 34.7753 108.953 34.892C108.752 35.0087 108.596 35.172 108.484 35.382C108.372 35.592 108.316 35.8323 108.316 36.103V36.18C108.316 36.46 108.376 36.7073 108.498 36.922C108.624 37.132 108.796 37.2977 109.016 37.419C109.24 37.5357 109.494 37.594 109.779 37.594C110.003 37.594 110.21 37.5543 110.402 37.475C110.598 37.3957 110.766 37.2743 110.906 37.111L111.186 37.433C111.022 37.629 110.817 37.7783 110.57 37.881C110.327 37.9837 110.059 38.035 109.765 38.035ZM112.127 39.022L112.435 37.727L112.491 38.028C112.384 38.028 112.293 37.993 112.218 37.923C112.148 37.853 112.113 37.762 112.113 37.65C112.113 37.538 112.148 37.447 112.218 37.377C112.293 37.307 112.382 37.272 112.484 37.272C112.592 37.272 112.678 37.3093 112.743 37.384C112.813 37.4587 112.848 37.5473 112.848 37.65C112.848 37.6873 112.846 37.7247 112.841 37.762C112.837 37.7993 112.827 37.8413 112.813 37.888C112.799 37.9347 112.781 37.9907 112.757 38.056L112.463 39.022H112.127ZM117.991 38.042C117.622 38.042 117.279 37.9813 116.962 37.86C116.649 37.734 116.376 37.559 116.143 37.335C115.914 37.1063 115.734 36.8427 115.604 36.544C115.478 36.2407 115.415 35.9093 115.415 35.55C115.415 35.1907 115.478 34.8617 115.604 34.563C115.734 34.2597 115.914 33.996 116.143 33.772C116.376 33.5433 116.649 33.3683 116.962 33.247C117.274 33.121 117.617 33.058 117.991 33.058C118.359 33.058 118.7 33.121 119.013 33.247C119.325 33.3683 119.596 33.541 119.825 33.765C120.058 33.989 120.238 34.2527 120.364 34.556C120.494 34.8593 120.56 35.1907 120.56 35.55C120.56 35.9093 120.494 36.2407 120.364 36.544C120.238 36.8473 120.058 37.111 119.825 37.335C119.596 37.559 119.325 37.734 119.013 37.86C118.7 37.9813 118.359 38.042 117.991 38.042ZM119.594 38.973C119.444 38.973 119.3 38.9543 119.16 38.917C119.02 38.8797 118.877 38.819 118.733 38.735C118.593 38.6557 118.448 38.5507 118.299 38.42C118.149 38.2893 117.986 38.1307 117.809 37.944L118.376 37.804C118.52 37.9767 118.66 38.119 118.796 38.231C118.936 38.343 119.071 38.4247 119.202 38.476C119.337 38.532 119.47 38.56 119.601 38.56C119.965 38.56 120.275 38.4107 120.532 38.112L120.784 38.413C120.476 38.7863 120.079 38.973 119.594 38.973ZM117.991 37.58C118.285 37.58 118.555 37.531 118.803 37.433C119.055 37.3303 119.272 37.1857 119.454 36.999C119.64 36.8123 119.785 36.5977 119.888 36.355C119.99 36.1077 120.042 35.8393 120.042 35.55C120.042 35.256 119.99 34.9877 119.888 34.745C119.785 34.4977 119.64 34.283 119.454 34.101C119.272 33.9143 119.055 33.772 118.803 33.674C118.555 33.5713 118.285 33.52 117.991 33.52C117.697 33.52 117.424 33.5713 117.172 33.674C116.92 33.772 116.7 33.9143 116.514 34.101C116.332 34.283 116.187 34.4977 116.08 34.745C115.977 34.9877 115.926 35.256 115.926 35.55C115.926 35.8393 115.977 36.1077 116.08 36.355C116.187 36.5977 116.332 36.8123 116.514 36.999C116.7 37.1857 116.92 37.3303 117.172 37.433C117.424 37.531 117.697 37.58 117.991 37.58ZM123.135 38.035C122.822 38.035 122.549 37.9767 122.316 37.86C122.083 37.7433 121.901 37.5683 121.77 37.335C121.644 37.1017 121.581 36.81 121.581 36.46V34.325H122.078V36.404C122.078 36.796 122.174 37.0923 122.365 37.293C122.561 37.489 122.834 37.587 123.184 37.587C123.441 37.587 123.662 37.5357 123.849 37.433C124.04 37.3257 124.185 37.1717 124.283 36.971C124.386 36.7703 124.437 36.53 124.437 36.25V34.325H124.934V38H124.458V36.992L124.535 37.174C124.418 37.4447 124.236 37.657 123.989 37.811C123.746 37.9603 123.462 38.035 123.135 38.035ZM128.622 38V37.188L128.601 37.055V35.697C128.601 35.3843 128.512 35.144 128.335 34.976C128.162 34.808 127.903 34.724 127.558 34.724C127.32 34.724 127.094 34.7637 126.879 34.843C126.664 34.9223 126.482 35.0273 126.333 35.158L126.109 34.787C126.296 34.6283 126.52 34.507 126.781 34.423C127.042 34.3343 127.318 34.29 127.607 34.29C128.083 34.29 128.449 34.409 128.706 34.647C128.967 34.8803 129.098 35.2373 129.098 35.718V38H128.622ZM127.355 38.035C127.08 38.035 126.839 37.9907 126.634 37.902C126.433 37.8087 126.279 37.6827 126.172 37.524C126.065 37.3607 126.011 37.174 126.011 36.964C126.011 36.7727 126.055 36.6 126.144 36.446C126.237 36.2873 126.387 36.1613 126.592 36.068C126.802 35.97 127.082 35.921 127.432 35.921H128.699V36.292H127.446C127.091 36.292 126.844 36.355 126.704 36.481C126.569 36.607 126.501 36.7633 126.501 36.95C126.501 37.16 126.583 37.328 126.746 37.454C126.909 37.58 127.138 37.643 127.432 37.643C127.712 37.643 127.952 37.58 128.153 37.454C128.358 37.3233 128.508 37.1367 128.601 36.894L128.713 37.237C128.62 37.4797 128.456 37.6733 128.223 37.818C127.994 37.9627 127.705 38.035 127.355 38.035ZM130.448 38V32.806H130.945V38H130.448ZM132.328 38V34.325H132.825V38H132.328ZM132.58 33.513C132.477 33.513 132.391 33.478 132.321 33.408C132.251 33.338 132.216 33.254 132.216 33.156C132.216 33.058 132.251 32.9763 132.321 32.911C132.391 32.841 132.477 32.806 132.58 32.806C132.682 32.806 132.769 32.8387 132.839 32.904C132.909 32.9693 132.944 33.051 132.944 33.149C132.944 33.2517 132.909 33.338 132.839 33.408C132.773 33.478 132.687 33.513 132.58 33.513ZM135.37 38.035C135.024 38.035 134.758 37.9417 134.572 37.755C134.385 37.5683 134.292 37.3047 134.292 36.964V33.513H134.789V36.936C134.789 37.1507 134.842 37.3163 134.95 37.433C135.062 37.5497 135.22 37.608 135.426 37.608C135.645 37.608 135.827 37.545 135.972 37.419L136.147 37.776C136.049 37.8647 135.93 37.93 135.79 37.972C135.654 38.014 135.514 38.035 135.37 38.035ZM133.634 34.738V34.325H135.909V34.738H133.634ZM137.011 39.393C136.838 39.393 136.673 39.365 136.514 39.309C136.36 39.253 136.227 39.169 136.115 39.057L136.346 38.686C136.439 38.7747 136.54 38.8423 136.647 38.889C136.759 38.9403 136.883 38.966 137.018 38.966C137.181 38.966 137.321 38.9193 137.438 38.826C137.559 38.7373 137.674 38.5787 137.781 38.35L138.019 37.811L138.075 37.734L139.587 34.325H140.077L138.236 38.441C138.133 38.679 138.019 38.868 137.893 39.008C137.772 39.148 137.639 39.246 137.494 39.302C137.349 39.3627 137.188 39.393 137.011 39.393ZM137.991 38.105L136.297 34.325H136.815L138.313 37.699L137.991 38.105ZM141.93 38L144.17 33.1H144.681L146.921 38H146.375L144.317 33.401H144.527L142.469 38H141.93ZM142.812 36.691L142.966 36.271H145.815L145.969 36.691H142.812ZM148.579 38.035C148.276 38.035 147.989 37.993 147.718 37.909C147.448 37.8203 147.235 37.7107 147.081 37.58L147.305 37.188C147.455 37.3 147.646 37.398 147.879 37.482C148.113 37.5613 148.358 37.601 148.614 37.601C148.964 37.601 149.216 37.5473 149.37 37.44C149.524 37.328 149.601 37.181 149.601 36.999C149.601 36.8637 149.557 36.7587 149.468 36.684C149.384 36.6047 149.272 36.5463 149.132 36.509C148.992 36.467 148.836 36.432 148.663 36.404C148.491 36.376 148.318 36.3433 148.145 36.306C147.977 36.2687 147.823 36.215 147.683 36.145C147.543 36.0703 147.429 35.97 147.34 35.844C147.256 35.718 147.214 35.55 147.214 35.34C147.214 35.1393 147.27 34.9597 147.382 34.801C147.494 34.6423 147.658 34.5187 147.872 34.43C148.092 34.3367 148.358 34.29 148.67 34.29C148.908 34.29 149.146 34.3227 149.384 34.388C149.622 34.4487 149.818 34.5303 149.972 34.633L149.755 35.032C149.592 34.92 149.417 34.8407 149.23 34.794C149.044 34.7427 148.857 34.717 148.67 34.717C148.339 34.717 148.094 34.7753 147.935 34.892C147.781 35.004 147.704 35.1487 147.704 35.326C147.704 35.466 147.746 35.5757 147.83 35.655C147.919 35.7343 148.033 35.7973 148.173 35.844C148.318 35.886 148.474 35.921 148.642 35.949C148.815 35.977 148.985 36.012 149.153 36.054C149.326 36.0913 149.482 36.145 149.622 36.215C149.767 36.2803 149.881 36.376 149.965 36.502C150.054 36.6233 150.098 36.7843 150.098 36.985C150.098 37.1997 150.038 37.3863 149.916 37.545C149.8 37.699 149.627 37.8203 149.398 37.909C149.174 37.993 148.901 38.035 148.579 38.035ZM151.997 38.035C151.694 38.035 151.407 37.993 151.136 37.909C150.866 37.8203 150.653 37.7107 150.499 37.58L150.723 37.188C150.873 37.3 151.064 37.398 151.297 37.482C151.531 37.5613 151.776 37.601 152.032 37.601C152.382 37.601 152.634 37.5473 152.788 37.44C152.942 37.328 153.019 37.181 153.019 36.999C153.019 36.8637 152.975 36.7587 152.886 36.684C152.802 36.6047 152.69 36.5463 152.55 36.509C152.41 36.467 152.254 36.432 152.081 36.404C151.909 36.376 151.736 36.3433 151.563 36.306C151.395 36.2687 151.241 36.215 151.101 36.145C150.961 36.0703 150.847 35.97 150.758 35.844C150.674 35.718 150.632 35.55 150.632 35.34C150.632 35.1393 150.688 34.9597 150.8 34.801C150.912 34.6423 151.076 34.5187 151.29 34.43C151.51 34.3367 151.776 34.29 152.088 34.29C152.326 34.29 152.564 34.3227 152.802 34.388C153.04 34.4487 153.236 34.5303 153.39 34.633L153.173 35.032C153.01 34.92 152.835 34.8407 152.648 34.794C152.462 34.7427 152.275 34.717 152.088 34.717C151.757 34.717 151.512 34.7753 151.353 34.892C151.199 35.004 151.122 35.1487 151.122 35.326C151.122 35.466 151.164 35.5757 151.248 35.655C151.337 35.7343 151.451 35.7973 151.591 35.844C151.736 35.886 151.892 35.921 152.06 35.949C152.233 35.977 152.403 36.012 152.571 36.054C152.744 36.0913 152.9 36.145 153.04 36.215C153.185 36.2803 153.299 36.376 153.383 36.502C153.472 36.6233 153.516 36.7843 153.516 36.985C153.516 37.1997 153.456 37.3863 153.334 37.545C153.218 37.699 153.045 37.8203 152.816 37.909C152.592 37.993 152.319 38.035 151.997 38.035ZM155.947 38.035C155.635 38.035 155.362 37.9767 155.128 37.86C154.895 37.7433 154.713 37.5683 154.582 37.335C154.456 37.1017 154.393 36.81 154.393 36.46V34.325H154.89V36.404C154.89 36.796 154.986 37.0923 155.177 37.293C155.373 37.489 155.646 37.587 155.996 37.587C156.253 37.587 156.475 37.5357 156.661 37.433C156.853 37.3257 156.997 37.1717 157.095 36.971C157.198 36.7703 157.249 36.53 157.249 36.25V34.325H157.746V38H157.27V36.992L157.347 37.174C157.231 37.4447 157.049 37.657 156.801 37.811C156.559 37.9603 156.274 38.035 155.947 38.035ZM159.131 38V34.325H159.607V35.326L159.558 35.151C159.661 34.871 159.834 34.6587 160.076 34.514C160.319 34.3647 160.62 34.29 160.979 34.29V34.773C160.961 34.773 160.942 34.773 160.923 34.773C160.905 34.7683 160.886 34.766 160.867 34.766C160.48 34.766 160.177 34.885 159.957 35.123C159.738 35.3563 159.628 35.69 159.628 36.124V38H159.131ZM163.413 38.035C163.031 38.035 162.695 37.9557 162.405 37.797C162.116 37.6337 161.89 37.412 161.726 37.132C161.563 36.8473 161.481 36.523 161.481 36.159C161.481 35.795 161.558 35.473 161.712 35.193C161.871 34.913 162.086 34.6937 162.356 34.535C162.632 34.3717 162.94 34.29 163.28 34.29C163.626 34.29 163.931 34.3693 164.197 34.528C164.468 34.682 164.68 34.9013 164.834 35.186C164.988 35.466 165.065 35.7903 165.065 36.159C165.065 36.1823 165.063 36.208 165.058 36.236C165.058 36.2593 165.058 36.285 165.058 36.313H161.859V35.942H164.792L164.596 36.089C164.596 35.823 164.538 35.5873 164.421 35.382C164.309 35.172 164.155 35.0087 163.959 34.892C163.763 34.7753 163.537 34.717 163.28 34.717C163.028 34.717 162.802 34.7753 162.601 34.892C162.401 35.0087 162.244 35.172 162.132 35.382C162.02 35.592 161.964 35.8323 161.964 36.103V36.18C161.964 36.46 162.025 36.7073 162.146 36.922C162.272 37.132 162.445 37.2977 162.664 37.419C162.888 37.5357 163.143 37.594 163.427 37.594C163.651 37.594 163.859 37.5543 164.05 37.475C164.246 37.3957 164.414 37.2743 164.554 37.111L164.834 37.433C164.671 37.629 164.466 37.7783 164.218 37.881C163.976 37.9837 163.707 38.035 163.413 38.035ZM167.54 38.035C167.19 38.035 166.875 37.9557 166.595 37.797C166.319 37.6383 166.102 37.419 165.944 37.139C165.785 36.8543 165.706 36.5277 165.706 36.159C165.706 35.7857 165.785 35.459 165.944 35.179C166.102 34.899 166.319 34.682 166.595 34.528C166.875 34.3693 167.19 34.29 167.54 34.29C167.862 34.29 168.149 34.3623 168.401 34.507C168.657 34.6517 168.86 34.864 169.01 35.144C169.164 35.4193 169.241 35.7577 169.241 36.159C169.241 36.5557 169.166 36.894 169.017 37.174C168.867 37.454 168.664 37.6687 168.408 37.818C168.156 37.9627 167.866 38.035 167.54 38.035ZM167.575 37.594C167.836 37.594 168.069 37.5357 168.275 37.419C168.485 37.2977 168.648 37.1297 168.765 36.915C168.886 36.6957 168.947 36.4437 168.947 36.159C168.947 35.8697 168.886 35.6177 168.765 35.403C168.648 35.1883 168.485 35.0227 168.275 34.906C168.069 34.7847 167.836 34.724 167.575 34.724C167.318 34.724 167.087 34.7847 166.882 34.906C166.676 35.0227 166.513 35.1883 166.392 35.403C166.27 35.6177 166.21 35.8697 166.21 36.159C166.21 36.4437 166.27 36.6957 166.392 36.915C166.513 37.1297 166.676 37.2977 166.882 37.419C167.087 37.5357 167.318 37.594 167.575 37.594ZM168.961 38V36.894L169.01 36.152L168.94 35.41V32.806H169.437V38H168.961Z" fill="#5F5F5F"/>
<path d="M9.97895 27.6818V23.262C9.97895 23.262 6.81783 22.5625 5.66585 21.0521C4.77394 19.8827 4.389 18.9321 4.50199 17.4611C4.66394 15.3527 6.20663 13.7132 7.5 13C8.79337 12.2868 11.5 13 11.5 13L15 9.5C15 9.5 12.5 8 9.97895 8C7.78819 8 5.73341 8.34554 3.54362 10.279C1.68394 11.921 0.43346 13.7451 0.12052 16.2181C-0.290224 19.4639 0.272928 22.4914 2.99583 24.9885C5.15613 26.9696 9.97895 27.6818 9.97895 27.6818Z" fill="#007BFD"/>
<path d="M11.7951 17.2928C11.5893 20.0283 11.7951 32 11.7951 32L16.4508 27.2372C16.4508 27.2372 16.3132 18.743 16.6559 17.2928C16.9985 15.8425 17.8885 14.8334 19.7366 14.047C21.5847 13.2605 23.5328 13.4921 24.2551 13.7684C24.9775 14.0447 26.2244 14.5829 27.1305 15.8425C28.0367 17.1021 28.1166 18.4453 27.8836 19.9837C27.5976 21.872 26.8854 22.9749 25.2821 23.9915C23.7347 24.9725 22 24.5 21.5 24.5C21.029 24.5 18 23.9915 18 23.9915V28.5C18 28.5 21.7753 29.2901 24.2551 28.8946C25.9767 28.62 26.598 28.3121 28.0894 27.4022C29.8209 26.3457 30.5057 25.348 31.5121 23.5771C32.6491 21.5763 32.6078 19.1148 32.6078 18.1483C32.6078 15.4547 30.6906 12.8094 29.2529 11.5606C26.7798 9.4125 24.7742 8.94342 21.5167 9.14354C19.1451 9.28923 17.6622 9.66098 15.6974 11.0084C13.1988 12.7218 12.0008 14.5572 11.7951 17.2928Z" fill="#007BFD"/>
</svg>
